{
.appVersion = "3260";
.formatVersion = 3;
DisplayStrings = (
"Ꞌ!",
"·",
"/backslash",
")",
"{",
"]",
"}",
"”",
"’;‚„ʻ",
"’",
"«",
"»",
"‹",
"›",
"ʔ?",
"ʔ?",
"฿",
"¶",
"¢",
"®",
"™",
$,
"€",
"¥",
"≠",
"=",
"≥",
"≤",
"±",
"∞"
);
axes = (
{
name = Weight;
tag = wght;
}
);
date = "2024-11-28 05:39:27 +0000";
familyName = Gyrograph;
fontMaster = (
{
axesValues = (
400
);
id = m01;
metricValues = (
{
over = 32;
pos = 1632;
},
{
over = -32;
},
{
over = -32;
pos = -512;
},
{
over = 32;
pos = 1536;
},
{
over = 24;
pos = 1024;
},
{
},
{
over = 24;
pos = 576;
},
{
pos = 768;
},
{
pos = 512;
}
);
name = Regular;
stemValues = (
176,
192,
144,
132
);
userData = {
GSCornerRadius = 80;
};
}
);
glyphs = (
{
glyphname = A;
kernLeft = A;
kernRight = A;
lastChange = "2024-12-22 04:37:59 +0000";
layers = (
{
anchors = (
{
name = bottom;
pos = (1062,0);
},
{
name = ogonek;
pos = (1991,10);
},
{
name = top;
pos = (1062,1536);
}
);
layerId = m01;
shapes = (
{
closed = 1;
nodes = (
(180,0,ls),
(224,0,o),
(254,16,o),
(276,55,cs),
(475,400,l),
(1649,400,l),
(1848,55,ls),
(1870,16,o),
(1900,0,o),
(1944,0,cs),
(1991,0,ls),
(2054,0,o),
(2078,40,o),
(2046,96,cs),
(1246,1481,ls),
(1224,1520,o),
(1194,1536,o),
(1150,1536,cs),
(974,1536,ls),
(930,1536,o),
(900,1520,o),
(878,1481,cs),
(78,96,ls),
(46,40,o),
(71,0,o),
(134,0,cs)
);
},
{
closed = 1;
nodes = (
(1030,1360,l),
(1094,1360,l),
(1547,576,l),
(577,576,l)
);
}
);
width = 2124;
}
);
unicode = 65;
},
{
glyphname = AE;
kernLeft = A;
kernRight = E;
lastChange = "2024-12-15 15:41:12 +0000";
layers = (
{
anchors = (
{
name = bottom;
pos = (1200,0);
},
{
name = top;
pos = (1200,1536);
}
);
layerId = m01;
shapes = (
{
closed = 1;
nodes = (
(182,0,ls),
(226,0,o),
(256,16,o),
(278,55,cs),
(477,400,l),
(1096,400,l),
(1096,80,ls),
(1096,28,o),
(1124,0,o),
(1176,0,cs),
(2232,0,ls),
(2284,0,o),
(2312,28,o),
(2312,80,cs),
(2312,96,ls),
(2312,148,o),
(2284,176,o),
(2232,176,cs),
(1288,176,l),
(1288,680,l),
(2044,680,ls),
(2096,680,o),
(2124,708,o),
(2124,760,cs),
(2124,776,ls),
(2124,828,o),
(2096,856,o),
(2044,856,cs),
(1288,856,l),
(1288,1360,l),
(2232,1360,ls),
(2284,1360,o),
(2312,1388,o),
(2312,1440,cs),
(2312,1456,ls),
(2312,1508,o),
(2284,1536,o),
(2232,1536,cs),
(976,1536,ls),
(932,1536,o),
(902,1520,o),
(880,1481,cs),
(80,96,ls),
(48,40,o),
(73,0,o),
(136,0,cs)
);
},
{
closed = 1;
nodes = (
(1032,1360,l),
(1096,1360,l),
(1096,576,l),
(579,576,l)
);
}
);
width = 2400;
}
);
unicode = 198;
},
{
glyphname = B;
kernLeft = H;
kernRight = O;
lastChange = "2024-12-22 04:44:39 +0000";
layers = (
{
anchors = (
{
name = bottom;
pos = (980,0);
},
{
name = center;
pos = (482,384);
},
{
name = top;
pos = (980,1536);
}
);
layerId = m01;
shapes = (
{
closed = 1;
nodes = (
(1560,0,ls),
(1912,0,o),
(2080,84,o),
(2080,412,cs),
(2080,444,ls),
(2080,619,o),
(1991,728,o),
(1807,774,c),
(1948,822,o),
(2016,919,o),
(2016,1092,cs),
(2016,1124,ls),
(2016,1452,o),
(1848,1536,o),
(1496,1536,cs),
(272,1536,ls),
(220,1536,o),
(192,1508,o),
(192,1456,cs),
(192,80,ls),
(192,28,o),
(220,0,o),
(272,0,cs)
);
},
{
closed = 1;
nodes = (
(384,680,l),
(1546,680,ls),
(1800,680,o),
(1888,641,o),
(1888,441,cs),
(1888,415,ls),
(1888,205,o),
(1800,176,o),
(1546,176,cs),
(384,176,l)
);
},
{
closed = 1;
nodes = (
(384,1360,l),
(1482,1360,ls),
(1736,1360,o),
(1824,1331,o),
(1824,1121,cs),
(1824,1095,ls),
(1824,895,o),
(1736,856,o),
(1482,856,cs),
(384,856,l)
);
}
);
width = 2208;
}
);
unicode = 66;
},
{
glyphname = C;
kernLeft = O;
kernRight = O;
lastChange = "2024-12-22 04:38:08 +0000";
layers = (
{
anchors = (
{
name = bottom;
pos = (1072,0);
},
{
name = top;
pos = (1072,1536);
}
);
layerId = m01;
shapes = (
{
closed = 1;
nodes = (
(1236,-32,ls),
(1727,-32,o),
(1979,77,o),
(2012,422,cs),
(2017,475,o),
(1986,504,o),
(1934,504,cs),
(1902,504,ls),
(1851,504,o),
(1826,477,o),
(1820,426,cs),
(1796,193,o),
(1648,144,o),
(1215,144,cs),
(929,144,ls),
(452,144,o),
(320,203,o),
(320,749,cs),
(320,788,ls),
(320,1334,o),
(452,1392,o),
(929,1392,cs),
(1215,1392,ls),
(1648,1392,o),
(1796,1344,o),
(1820,1110,cs),
(1826,1059,o),
(1851,1032,o),
(1902,1032,cs),
(1934,1032,ls),
(1986,1032,o),
(2017,1061,o),
(2012,1114,cs),
(1979,1459,o),
(1727,1568,o),
(1236,1568,cs),
(908,1568,ls),
(380,1568,o),
(128,1442,o),
(128,792,cs),
(128,744,ls),
(128,94,o),
(380,-32,o),
(908,-32,cs)
);
}
);
width = 2141;
}
);
unicode = 67;
},
{
glyphname = D;
kernLeft = H;
kernRight = O;
lastChange = "2024-12-22 04:44:51 +0000";
layers = (
{
anchors = (
{
name = bottom;
pos = (1156,0);
},
{
name = center;
pos = (650,768);
},
{
name = top;
pos = (1156,1536);
}
);
layerId = m01;
shapes = (
{
closed = 1;
nodes = (
(192,80,ls),
(192,28,o),
(220,0,o),
(272,0,cs),
(1560,0,ls),
(1912,0,o),
(2080,284,o),
(2080,664,cs),
(2080,872,ls),
(2080,1252,o),
(1912,1536,o),
(1560,1536,cs),
(272,1536,ls),
(220,1536,o),
(192,1508,o),
(192,1456,cs)
);
},
{
closed = 1;
nodes = (
(1546,1360,ls),
(1800,1360,o),
(1888,1131,o),
(1888,869,cs),
(1888,667,ls),
(1888,415,o),
(1800,176,o),
(1546,176,cs),
(384,176,l),
(384,1360,l)
);
}
);
width = 2208;
}
);
unicode = 68;
},
{
glyphname = E;
kernLeft = H;
kernRight = A;
lastChange = "2024-12-22 04:45:00 +0000";
layers = (
{
anchors = (
{
name = bottom;
pos = (1028,0);
},
{
name = ogonek;
pos = (1812,10);
},
{
name = top;
pos = (1028,1536);
},
{
name = topleft;
pos = (68,1536);
}
);
layerId = m01;
shapes = (
{
closed = 1;
nodes = (
(1840,0,ls),
(1892,0,o),
(1920,28,o),
(1920,80,cs),
(1920,96,ls),
(1920,148,o),
(1892,176,o),
(1840,176,cs),
(384,176,l),
(384,680,l),
(1652,680,ls),
(1704,680,o),
(1732,708,o),
(1732,760,cs),
(1732,776,ls),
(1732,828,o),
(1704,856,o),
(1652,856,cs),
(384,856,l),
(384,1360,l),
(1840,1360,ls),
(1892,1360,o),
(1920,1388,o),
(1920,1440,cs),
(1920,1456,ls),
(1920,1508,o),
(1892,1536,o),
(1840,1536,cs),
(272,1536,ls),
(220,1536,o),
(192,1508,o),
(192,1456,cs),
(192,80,ls),
(192,28,o),
(220,0,o),
(272,0,cs)
);
}
);
width = 1984;
}
);
unicode = 69;
},
{
glyphname = Schwa;
lastChange = "2024-12-14 04:31:21 +0000";
layers = (
{
anchors = (
{
name = bottom;
pos = (1047,-32);
},
{
name = top;
pos = (1047,1536);
}
);
layerId = m01;
shapes = (
{
closed = 1;
nodes = (
(1756,-32,o),
(2008,94,o),
(2008,744,cs),
(2008,792,ls),
(2008,1442,o),
(1756,1568,o),
(1228,1568,cs),
(868,1568,ls),
(340,1568,o),
(125,1459,o),
(92,1114,cs),
(87,1061,o),
(118,1032,o),
(170,1032,cs),
(202,1032,ls),
(253,1032,o),
(279,1059,o),
(284,1110,cs),
(308,1344,o),
(412,1392,o),
(889,1392,cs),
(1207,1392,ls),
(1684,1392,o),
(1816,1334,o),
(1816,788,cs),
(1816,752,l),
(169,752,ls),
(117,752,o),
(89,723,o),
(89,669,cs),
(89,94,o),
(340,-32,o),
(868,-32,cs),
(1228,-32,ls)
);
},
{
closed = 1;
nodes = (
(1780,190,o),
(1628,144,o),
(1207,144,cs),
(889,144,ls),
(412,144,o),
(286,203,o),
(286,576,c),
(1810,576,l)
);
}
);
width = 2096;
}
);
unicode = 399;
},
{
glyphname = Ezh;
lastChange = "2024-12-21 05:06:25 +0000";
layers = (
{
anchors = (
{
name = bottom;
pos = (720,0);
},
{
name = top;
pos = (720,1536);
}
);
layerId = m01;
shapes = (
{
closed = 1;
nodes = (
(872,0,ls),
(1100,0,o),
(1352,122,o),
(1352,408,cs),
(1352,456,ls),
(1352,742,o),
(1100,864,o),
(872,864,cs),
(856,864,l),
(1311,1319,ls),
(1340,1348,o),
(1352,1377,o),
(1352,1418,cs),
(1352,1456,ls),
(1352,1508,o),
(1324,1536,o),
(1272,1536,cs),
(168,1536,ls),
(116,1536,o),
(88,1508,o),
(88,1456,cs),
(88,1440,ls),
(88,1388,o),
(116,1360,o),
(168,1360,cs),
(1080,1360,l),
(506,786,ls),
(456,736,o),
(476,688,o),
(547,688,cs),
(851,688,ls),
(1028,688,o),
(1160,634,o),
(1160,452,cs),
(1160,413,ls),
(1160,231,o),
(1028,176,o),
(851,176,cs),
(571,176,ls),
(457,176,o),
(317,212,o),
(278,421,cs),
(265,490,o),
(228,508,o),
(181,461,cs),
(132,412,ls),
(103,383,o),
(89,354,o),
(96,312,cs),
(133,79,o),
(388,0,o),
(550,0,cs)
);
}
);
width = 1440;
}
);
unicode = 439;
},
{
glyphname = F;
kernLeft = H;
lastChange = "2024-12-22 04:45:04 +0000";
layers = (
{
anchors = (
{
name = bottom;
pos = (1028,0);
},
{
name = top;
pos = (1028,1536);
}
);
layerId = m01;
shapes = (
{
closed = 1;
nodes = (
(192,80,ls),
(192,28,o),
(220,0,o),
(272,0,cs),
(304,0,ls),
(356,0,o),
(384,28,o),
(384,80,cs),
(384,680,l),
(1652,680,ls),
(1704,680,o),
(1732,708,o),
(1732,760,cs),
(1732,776,ls),
(1732,828,o),
(1704,856,o),
(1652,856,cs),
(384,856,l),
(384,1360,l),
(1840,1360,ls),
(1892,1360,o),
(1920,1388,o),
(1920,1440,cs),
(1920,1456,ls),
(1920,1508,o),
(1892,1536,o),
(1840,1536,cs),
(272,1536,ls),
(220,1536,o),
(192,1508,o),
(192,1456,cs)
);
}
);
width = 2008;
}
);
unicode = 70;
},
{
glyphname = G;
kernLeft = O;
kernRight = O;
lastChange = "2024-12-22 04:38:47 +0000";
layers = (
{
anchors = (
{
name = bottom;
pos = (1088,-32);
},
{
name = top;
pos = (1088,1536);
}
);
layerId = m01;
shapes = (
{
closed = 1;
nodes = (
(1268,-32,ls),
(1796,-32,o),
(2008,77,o),
(2047,669,cs),
(2051,723,o),
(2019,752,o),
(1967,752,cs),
(1136,752,ls),
(1084,752,o),
(1056,724,o),
(1056,672,cs),
(1056,656,ls),
(1056,604,o),
(1084,576,o),
(1136,576,cs),
(1850,576,l),
(1828,192,o),
(1724,144,o),
(1247,144,cs),
(929,144,ls),
(452,144,o),
(320,203,o),
(320,749,cs),
(320,788,ls),
(320,1334,o),
(452,1392,o),
(929,1392,cs),
(1247,1392,ls),
(1724,1392,o),
(1828,1344,o),
(1852,1110,cs),
(1857,1059,o),
(1883,1032,o),
(1934,1032,cs),
(1966,1032,ls),
(2018,1032,o),
(2049,1061,o),
(2044,1114,cs),
(2011,1459,o),
(1796,1568,o),
(1268,1568,cs),
(908,1568,ls),
(380,1568,o),
(128,1442,o),
(128,792,cs),
(128,744,ls),
(128,94,o),
(380,-32,o),
(908,-32,cs)
);
}
);
width = 2207;
}
);
unicode = 71;
},
{
glyphname = H;
kernLeft = H;
kernRight = H;
lastChange = "2024-12-22 04:38:56 +0000";
layers = (
{
anchors = (
{
name = bottom;
pos = (1104,0);
},
{
name = center;
pos = (1104,1152);
},
{
name = top;
pos = (1104,1536);
},
{
name = topleft;
pos = (68,1536);
}
);
layerId = m01;
shapes = (
{
closed = 1;
nodes = (
(192,80,ls),
(192,28,o),
(220,0,o),
(272,0,cs),
(304,0,ls),
(356,0,o),
(384,28,o),
(384,80,cs),
(384,680,l),
(1824,680,l),
(1824,80,ls),
(1824,28,o),
(1852,0,o),
(1904,0,cs),
(1936,0,ls),
(1988,0,o),
(2016,28,o),
(2016,80,cs),
(2016,1456,ls),
(2016,1508,o),
(1988,1536,o),
(1936,1536,cs),
(1904,1536,ls),
(1852,1536,o),
(1824,1508,o),
(1824,1456,cs),
(1824,856,l),
(384,856,l),
(384,1456,ls),
(384,1508,o),
(356,1536,o),
(304,1536,cs),
(272,1536,ls),
(220,1536,o),
(192,1508,o),
(192,1456,cs)
);
}
);
width = 2208;
}
);
unicode = 72;
},
{
glyphname = J;
kernLeft = O;
lastChange = "2024-12-22 04:46:27 +0000";
layers = (
{
anchors = (
{
name = bottom;
pos = (894,0);
},
{
name = top;
pos = (894,1536);
}
);
layerId = m01;
shapes = (
{
closed = 1;
nodes = (
(1001,-32,ls),
(1409,-32,o),
(1661,94,o),
(1661,744,cs),
(1661,1457,ls),
(1661,1509,o),
(1633,1536,o),
(1581,1536,cs),
(1549,1536,ls),
(1498,1535,o),
(1469,1506,o),
(1469,1455,cs),
(1469,749,ls),
(1469,203,o),
(1337,144,o),
(980,144,cs),
(806,144,ls),
(477,144,o),
(339,194,o),
(319,495,cs),
(316,548,o),
(289,576,o),
(238,576,cs),
(206,576,ls),
(154,576,o),
(124,547,o),
(128,493,cs),
(156,79,o),
(402,-32,o),
(785,-32,cs)
);
}
);
width = 1833;
}
);
unicode = 74;
},
{
glyphname = K;
kernLeft = H;
kernRight = A;
lastChange = "2024-12-22 04:45:43 +0000";
layers = (
{
anchors = (
{
name = bottom;
pos = (1072,0);
},
{
name = top;
pos = (1072,1536);
}
);
layerId = m01;
shapes = (
{
closed = 1;
nodes = (
(1851,0,ls),
(1929,0,o),
(1946,54,o),
(1881,97,cs),
(875,768,l),
(1846,1438,ls),
(1907,1480,o),
(1889,1536,o),
(1813,1536,cs),
(1731,1536,ls),
(1692,1536,o),
(1664,1524,o),
(1632,1502,cs),
(692,856,l),
(384,856,l),
(384,1456,ls),
(384,1508,o),
(356,1536,o),
(304,1536,cs),
(272,1536,ls),
(220,1536,o),
(192,1508,o),
(192,1456,cs),
(192,80,ls),
(192,28,o),
(220,0,o),
(272,0,cs),
(304,0,ls),
(356,0,o),
(384,28,o),
(384,80,cs),
(384,680,l),
(692,680,l),
(1685,30,ls),
(1717,9,o),
(1745,0,o),
(1784,0,cs)
);
}
);
width = 1985;
}
);
unicode = 75;
},
{
glyphname = L;
kernLeft = H;
kernRight = A;
lastChange = "2024-12-22 04:45:49 +0000";
layers = (
{
anchors = (
{
name = bottom;
pos = (916,0);
},
{
name = center;
pos = (288,768);
},
{
name = top;
pos = (288,1536);
},
{
name = topright;
pos = (464,1632);
}
);
layerId = m01;
shapes = (
{
closed = 1;
nodes = (
(1840,0,ls),
(1892,0,o),
(1920,28,o),
(1920,80,cs),
(1920,96,ls),
(1920,148,o),
(1892,176,o),
(1840,176,cs),
(384,176,l),
(384,1456,ls),
(384,1508,o),
(356,1536,o),
(304,1536,cs),
(272,1536,ls),
(220,1536,o),
(192,1508,o),
(192,1456,cs),
(192,80,ls),
(192,28,o),
(220,0,o),
(272,0,cs)
);
}
);
width = 1984;
}
);
unicode = 76;
},
{
glyphname = M;
kernLeft = H;
kernRight = H;
lastChange = "2024-12-22 04:45:53 +0000";
layers = (
{
anchors = (
{
name = bottom;
pos = (1360,0);
},
{
name = top;
pos = (1360,1536);
}
);
layerId = m01;
shapes = (
{
closed = 1;
nodes = (
(192,80,ls),
(192,28,o),
(220,0,o),
(272,0,cs),
(304,0,ls),
(356,0,o),
(384,28,o),
(384,80,cs),
(384,1360,l),
(396,1360,l),
(1199,150,ls),
(1224,113,o),
(1252,96,o),
(1295,96,cs),
(1425,96,ls),
(1468,96,o),
(1496,113,o),
(1521,150,cs),
(2324,1360,l),
(2336,1360,l),
(2336,80,ls),
(2336,28,o),
(2364,0,o),
(2416,0,cs),
(2448,0,ls),
(2500,0,o),
(2528,28,o),
(2528,80,cs),
(2528,1456,ls),
(2528,1508,o),
(2500,1536,o),
(2448,1536,cs),
(2271,1536,ls),
(2228,1536,o),
(2200,1519,o),
(2175,1482,cs),
(1360,252,l),
(545,1482,ls),
(520,1519,o),
(492,1536,o),
(449,1536,cs),
(272,1536,ls),
(220,1536,o),
(192,1508,o),
(192,1456,cs)
);
}
);
width = 2720;
}
);
unicode = 77;
},
{
glyphname = N;
kernLeft = H;
kernRight = H;
lastChange = "2024-12-22 04:39:40 +0000";
layers = (
{
anchors = (
{
name = bottom;
pos = (1112,0);
},
{
name = top;
pos = (1112,1536);
}
);
layerId = m01;
shapes = (
{
closed = 1;
nodes = (
(304,0,ls),
(356,0,o),
(384,28,o),
(384,80,cs),
(384,1360,l),
(396,1360,l),
(1692,41,ls),
(1721,12,o),
(1750,0,o),
(1791,0,cs),
(1952,0,ls),
(2004,0,o),
(2032,28,o),
(2032,80,cs),
(2032,1456,ls),
(2032,1508,o),
(2004,1536,o),
(1952,1536,cs),
(1920,1536,ls),
(1868,1536,o),
(1840,1508,o),
(1840,1456,cs),
(1840,176,l),
(1828,176,l),
(532,1495,ls),
(503,1524,o),
(474,1536,o),
(433,1536,cs),
(272,1536,ls),
(220,1536,o),
(192,1508,o),
(192,1456,cs),
(192,80,ls),
(192,28,o),
(220,0,o),
(272,0,cs)
);
}
);
width = 2224;
}
);
unicode = 78;
},
{
glyphname = Eng;
lastChange = "2024-12-21 04:58:39 +0000";
layers = (
{
anchors = (
{
name = bottom;
pos = (2434,-512);
},
{
name = top;
pos = (2520,1024);
}
);
layerId = m01;
shapes = (
{
ref = N;
},
{
closed = 1;
nodes = (
(1823,-544,o),
(1984,-405,o),
(1984,8,cs),
(1984,944,ls),
(1984,996,o),
(1956,1023,o),
(1904,1023,cs),
(1872,1023,ls),
(1821,1023,o),
(1792,993,o),
(1792,942,cs),
(1792,9,ls),
(1792,-309,o),
(1715,-363,o),
(1379,-368,cs),
(1325,-369,o),
(1296,-395,o),
(1296,-440,cs),
(1296,-474,ls),
(1296,-519,o),
(1325,-544,o),
(1379,-544,cs)
);
}
);
width = 2740;
}
);
unicode = 330;
},
{
glyphname = O;
kernLeft = O;
kernRight = O;
lastChange = "2024-12-22 04:39:45 +0000";
layers = (
{
anchors = (
{
name = bottom;
pos = (1072,0);
},
{
name = center;
pos = (1072,768);
},
{
name = ogonek;
pos = (1898,10);
},
{
name = top;
pos = (1072,1536);
},
{
name = topleft;
pos = (60,1536);
},
{
name = topright;
pos = (1815,1430);
}
);
layerId = m01;
shapes = (
{
closed = 1;
nodes = (
(128,744,ls),
(128,94,o),
(380,-32,o),
(908,-32,cs),
(1236,-32,ls),
(1764,-32,o),
(2016,94,o),
(2016,744,cs),
(2016,792,ls),
(2016,1442,o),
(1764,1568,o),
(1236,1568,cs),
(908,1568,ls),
(380,1568,o),
(128,1442,o),
(128,792,cs)
);
},
{
closed = 1;
nodes = (
(320,1334,o),
(452,1392,o),
(929,1392,cs),
(1215,1392,ls),
(1692,1392,o),
(1824,1334,o),
(1824,788,cs),
(1824,749,ls),
(1824,203,o),
(1692,144,o),
(1215,144,cs),
(929,144,ls),
(452,144,o),
(320,203,o),
(320,749,cs),
(320,788,ls)
);
}
);
width = 2144;
}
);
unicode = 79;
},
{
glyphname = OE;
kernLeft = O;
kernRight = E;
lastChange = "2024-12-15 15:41:08 +0000";
layers = (
{
anchors = (
{
name = bottom;
pos = (2136,0);
},
{
name = center;
pos = (552,768);
},
{
name = ogonek;
pos = (2866,10);
},
{
name = top;
pos = (2136,1536);
},
{
name = topleft;
pos = (1180,1536);
},
{
name = topright;
pos = (1564,1536);
}
);
layerId = m01;
shapes = (
{
closed = 1;
nodes = (
(88,744,ls),
(88,94,o),
(340,-32,o),
(668,-32,cs),
(916,-32,ls),
(1244,-32,o),
(1496,94,o),
(1496,744,cs),
(1496,792,ls),
(1496,1442,o),
(1244,1568,o),
(916,1568,cs),
(668,1568,ls),
(340,1568,o),
(88,1442,o),
(88,792,cs)
);
},
{
closed = 1;
nodes = (
(280,1334,o),
(412,1392,o),
(689,1392,cs),
(895,1392,ls),
(1172,1392,o),
(1304,1334,o),
(1304,788,cs),
(1304,749,ls),
(1304,203,o),
(1172,144,o),
(895,144,cs),
(689,144,ls),
(412,144,o),
(280,203,o),
(280,749,cs),
(280,788,ls)
);
},
{
closed = 1;
nodes = (
(2440,0,ls),
(2492,0,o),
(2520,28,o),
(2520,80,cs),
(2520,96,ls),
(2520,148,o),
(2492,176,o),
(2440,176,cs),
(1496,176,l),
(1496,680,l),
(2252,680,ls),
(2304,680,o),
(2332,708,o),
(2332,760,cs),
(2332,776,ls),
(2332,828,o),
(2304,856,o),
(2252,856,cs),
(1496,856,l),
(1496,1360,l),
(2440,1360,ls),
(2492,1360,o),
(2520,1388,o),
(2520,1440,cs),
(2520,1456,ls),
(2520,1508,o),
(2492,1536,o),
(2440,1536,cs),
(1384,1536,ls),
(1332,1536,o),
(1304,1508,o),
(1304,1456,cs),
(1304,80,ls),
(1304,28,o),
(1332,0,o),
(1384,0,cs)
);
}
);
width = 2608;
}
);
unicode = 338;
},
{
glyphname = P;
kernLeft = H;
kernRight = V;
lastChange = "2024-12-22 04:46:04 +0000";
layers = (
{
anchors = (
{
name = bottom;
pos = (1012,0);
},
{
name = top;
pos = (1012,1536);
}
);
layerId = m01;
shapes = (
{
closed = 1;
nodes = (
(304,0,ls),
(356,0,o),
(384,28,o),
(384,80,cs),
(384,576,l),
(1496,576,ls),
(1848,576,o),
(2016,660,o),
(2016,1040,cs),
(2016,1072,ls),
(2016,1452,o),
(1848,1536,o),
(1496,1536,cs),
(272,1536,ls),
(220,1536,o),
(192,1508,o),
(192,1456,cs),
(192,80,ls),
(192,28,o),
(220,0,o),
(272,0,cs)
);
},
{
closed = 1;
nodes = (
(384,1360,l),
(1482,1360,ls),
(1736,1360,o),
(1824,1331,o),
(1824,1069,cs),
(1824,1043,ls),
(1824,791,o),
(1736,752,o),
(1482,752,cs),
(384,752,l)
);
}
);
width = 2092;
}
);
unicode = 80;
},
{
glyphname = Q;
kernLeft = "128";
lastChange = "2024-12-22 04:46:12 +0000";
layers = (
{
anchors = (
{
name = bottom;
pos = (1048,0);
},
{
name = top;
pos = (1048,1536);
}
);
layerId = m01;
shapes = (
{
ref = O;
},
{
closed = 1;
nodes = (
(1190,621,ls),
(1161,579,o),
(1167,539,o),
(1209,509,cs),
(1957,-14,ls),
(1999,-44,o),
(2039,-36,o),
(2069,6,cs),
(2078,19,ls),
(2107,61,o),
(2101,101,o),
(2059,131,cs),
(1311,654,ls),
(1269,684,o),
(1229,676,o),
(1199,634,cs)
);
}
);
width = 2096;
}
);
unicode = 81;
},
{
glyphname = R;
kernLeft = H;
lastChange = "2024-12-22 04:46:24 +0000";
layers = (
{
anchors = (
{
name = bottom;
pos = (1016,0);
},
{
name = top;
pos = (1016,1536);
}
);
layerId = m01;
shapes = (
{
closed = 1;
nodes = (
(308,0,ls),
(360,0,o),
(388,28,o),
(388,80,cs),
(388,576,l),
(1382,576,l),
(1776,49,ls),
(1801,15,o),
(1831,0,o),
(1873,0,cs),
(1944,0,ls),
(2003,0,o),
(2019,44,o),
(1979,98,cs),
(1619,580,l),
(1890,600,o),
(2020,706,o),
(2020,1040,cs),
(2020,1072,ls),
(2020,1452,o),
(1852,1536,o),
(1500,1536,cs),
(276,1536,ls),
(224,1536,o),
(196,1508,o),
(196,1456,cs),
(196,80,ls),
(196,28,o),
(224,0,o),
(276,0,cs)
);
},
{
closed = 1;
nodes = (
(388,1360,l),
(1486,1360,ls),
(1740,1360,o),
(1828,1331,o),
(1828,1069,cs),
(1828,1043,ls),
(1828,791,o),
(1740,752,o),
(1486,752,cs),
(388,752,l)
);
}
);
width = 2192;
}
);
unicode = 82;
},
{
glyphname = S;
kernLeft = O;
kernRight = O;
lastChange = "2024-12-22 04:40:46 +0000";
layers = (
{
anchors = (
{
name = bottom;
pos = (1070,-32);
},
{
name = top;
pos = (1070,1536);
}
);
layerId = m01;
shapes = (
{
closed = 1;
nodes = (
(1238,-32,ls),
(1766,-32,o),
(2018,94,o),
(2018,400,cs),
(2018,444,ls),
(2018,605,o),
(1949,707,o),
(1809,768,cs),
(1681,828,o),
(1489,852,o),
(1232,854,cs),
(929,857,ls),
(452,862,o),
(320,911,o),
(320,1096,cs),
(320,1131,ls),
(320,1317,o),
(452,1376,o),
(929,1376,cs),
(1211,1376,ls),
(1648,1376,o),
(1796,1333,o),
(1820,1110,cs),
(1825,1065,o),
(1851,1032,o),
(1902,1032,cs),
(1934,1032,ls),
(1986,1032,o),
(2017,1060,o),
(2012,1114,cs),
(1979,1459,o),
(1727,1568,o),
(1232,1568,cs),
(908,1568,ls),
(380,1568,o),
(128,1442,o),
(128,1136,cs),
(128,1092,ls),
(128,931,o),
(197,829,o),
(337,768,cs),
(465,708,o),
(657,684,o),
(914,682,cs),
(1217,679,ls),
(1694,674,o),
(1826,625,o),
(1826,440,cs),
(1826,405,ls),
(1826,219,o),
(1694,160,o),
(1217,160,cs),
(935,160,ls),
(498,160,o),
(350,203,o),
(326,426,cs),
(321,471,o),
(295,504,o),
(244,504,cs),
(212,504,ls),
(160,504,o),
(129,476,o),
(134,422,cs),
(167,77,o),
(419,-32,o),
(914,-32,cs)
);
}
);
width = 2146;
}
);
unicode = 83;
},
{
glyphname = Germandbls;
kernLeft = H;
lastChange = "2024-12-22 05:18:10 +0000";
layers = (
{
anchors = (
{
name = bottom;
pos = (987,0);
},
{
name = top;
pos = (987,1536);
}
);
layerId = m01;
shapes = (
{
closed = 1;
nodes = (
(1358,0,ls),
(1586,0,o),
(1838,122,o),
(1838,408,cs),
(1838,456,ls),
(1838,742,o),
(1586,864,o),
(1358,864,cs),
(1342,864,l),
(1797,1319,ls),
(1826,1348,o),
(1838,1377,o),
(1838,1418,cs),
(1838,1456,ls),
(1838,1508,o),
(1810,1536,o),
(1758,1536,cs),
(272,1536,ls),
(220,1536,o),
(192,1508,o),
(192,1456,cs),
(192,80,ls),
(192,28,o),
(220,0,o),
(272,0,cs),
(304,0,ls),
(356,0,o),
(384,28,o),
(384,80,cs),
(384,1360,l),
(1566,1360,l),
(992,786,ls),
(942,736,o),
(962,688,o),
(1033,688,cs),
(1337,688,ls),
(1514,688,o),
(1646,634,o),
(1646,452,cs),
(1646,413,ls),
(1646,231,o),
(1514,176,o),
(1337,176,cs),
(1057,176,ls),
(943,176,o),
(803,212,o),
(764,421,cs),
(751,490,o),
(714,508,o),
(667,461,cs),
(618,412,ls),
(589,383,o),
(575,354,o),
(582,312,cs),
(619,79,o),
(874,0,o),
(1036,0,cs)
);
}
);
width = 1926;
}
);
unicode = 7838;
},
{
glyphname = T;
kernLeft = T;
kernRight = T;
lastChange = "2024-12-22 04:40:51 +0000";
layers = (
{
anchors = (
{
name = bottom;
pos = (1040,0);
},
{
name = center;
pos = (1040,768);
},
{
name = top;
pos = (1040,1536);
}
);
layerId = m01;
shapes = (
{
closed = 1;
nodes = (
(96,1440,ls),
(96,1388,o),
(124,1360,o),
(176,1360,cs),
(944,1360,l),
(944,80,ls),
(944,28,o),
(972,0,o),
(1024,0,cs),
(1056,0,ls),
(1108,0,o),
(1136,28,o),
(1136,80,cs),
(1136,1360,l),
(1904,1360,ls),
(1956,1360,o),
(1984,1388,o),
(1984,1440,cs),
(1984,1456,ls),
(1984,1508,o),
(1956,1536,o),
(1904,1536,cs),
(176,1536,ls),
(124,1536,o),
(96,1508,o),
(96,1456,cs)
);
}
);
width = 2080;
}
);
unicode = 84;
},
{
glyphname = U;
kernLeft = O;
kernRight = O;
lastChange = "2024-12-22 04:40:59 +0000";
layers = (
{
anchors = (
{
name = bottom;
pos = (1072,0);
},
{
name = ogonek;
pos = (1072,10);
},
{
name = top;
pos = (1072,1536);
},
{
name = topright;
pos = (1988,1521);
}
);
layerId = m01;
shapes = (
{
closed = 1;
nodes = (
);
},
{
closed = 1;
nodes = (
(1904,1536,ls),
(1852,1536,o),
(1824,1508,o),
(1824,1456,cs),
(1824,749,ls),
(1824,203,o),
(1692,144,o),
(1215,144,cs),
(929,144,ls),
(452,144,o),
(320,203,o),
(320,749,cs),
(320,1456,ls),
(320,1508,o),
(292,1536,o),
(240,1536,cs),
(208,1536,ls),
(156,1536,o),
(128,1508,o),
(128,1456,cs),
(128,744,ls),
(128,94,o),
(380,-32,o),
(908,-32,cs),
(1236,-32,ls),
(1764,-32,o),
(2016,94,o),
(2016,744,cs),
(2016,1456,ls),
(2016,1508,o),
(1988,1536,o),
(1936,1536,cs)
);
}
);
width = 2144;
}
);
unicode = 85;
},
{
glyphname = V;
kernLeft = V;
kernRight = V;
lastChange = "2024-12-22 04:41:08 +0000";
layers = (
{
anchors = (
{
name = bottom;
pos = (1058,0);
},
{
name = top;
pos = (1058,1536);
}
);
layerId = m01;
shapes = (
{
closed = 1;
nodes = (
(1146,0,ls),
(1190,0,o),
(1220,16,o),
(1242,55,cs),
(2030,1440,ls),
(2062,1496,o),
(2038,1536,o),
(1975,1536,cs),
(1928,1536,ls),
(1884,1536,o),
(1854,1520,o),
(1832,1481,cs),
(1090,176,l),
(1026,176,l),
(284,1481,ls),
(262,1520,o),
(232,1536,o),
(188,1536,cs),
(142,1536,ls),
(79,1536,o),
(54,1496,o),
(86,1440,cs),
(874,55,ls),
(896,16,o),
(926,0,o),
(970,0,cs)
);
}
);
width = 2116;
}
);
unicode = 86;
},
{
glyphname = W;
kernLeft = V;
kernRight = V;
lastChange = "2024-12-22 04:41:13 +0000";
layers = (
{
anchors = (
{
name = bottom;
pos = (1537,0);
},
{
name = top;
pos = (1537,1536);
}
);
layerId = m01;
shapes = (
{
closed = 1;
nodes = (
(914,0,ls),
(958,0,o),
(993,14,o),
(1010,55,cs),
(1537,1360,l),
(2064,55,ls),
(2081,14,o),
(2116,0,o),
(2160,0,cs),
(2336,0,ls),
(2380,0,o),
(2415,14,o),
(2432,55,cs),
(2991,1440,ls),
(3016,1501,o),
(2999,1536,o),
(2936,1536,cs),
(2889,1536,ls),
(2845,1536,o),
(2809,1522,o),
(2793,1481,cs),
(2280,176,l),
(2216,176,l),
(1703,1481,ls),
(1687,1522,o),
(1651,1536,o),
(1607,1536,cs),
(1467,1536,ls),
(1423,1536,o),
(1387,1522,o),
(1371,1481,cs),
(858,176,l),
(794,176,l),
(281,1481,ls),
(265,1522,o),
(229,1536,o),
(185,1536,cs),
(139,1536,ls),
(76,1536,o),
(58,1501,o),
(83,1440,cs),
(642,55,ls),
(659,14,o),
(694,0,o),
(738,0,cs)
);
}
);
width = 3074;
}
);
unicode = 87;
},
{
glyphname = X;
kernLeft = A;
kernRight = A;
lastChange = "2024-12-22 04:46:51 +0000";
layers = (
{
anchors = (
{
name = bottom;
pos = (1038,0);
},
{
name = top;
pos = (1038,1536);
}
);
layerId = m01;
shapes = (
{
closed = 1;
nodes = (
(219,0,ls),
(259,0,o),
(289,10,o),
(319,37,cs),
(1038,668,l),
(1757,37,ls),
(1787,10,o),
(1817,0,o),
(1857,0,cs),
(1946,0,ls),
(2018,0,o),
(2034,50,o),
(1979,98,cs),
(1184,796,l),
(1915,1438,ls),
(1970,1486,o),
(1951,1536,o),
(1878,1536,cs),
(1793,1536,ls),
(1753,1536,o),
(1723,1526,o),
(1693,1499,cs),
(1038,924,l),
(383,1499,ls),
(353,1526,o),
(323,1536,o),
(283,1536,cs),
(195,1536,ls),
(123,1536,o),
(106,1486,o),
(161,1438,cs),
(893,796,l),
(97,98,ls),
(42,50,o),
(59,0,o),
(131,0,cs)
);
}
);
width = 2076;
}
);
unicode = 88;
},
{
glyphname = Y;
kernLeft = O;
kernRight = O;
lastChange = "2024-12-22 04:46:55 +0000";
layers = (
{
anchors = (
{
name = bottom;
pos = (1001,0);
},
{
name = top;
pos = (1001,1536);
},
{
name = topleft;
pos = (82,1536);
}
);
layerId = m01;
shapes = (
{
closed = 1;
nodes = (
(1017,0,ls),
(1069,0,o),
(1097,28,o),
(1097,80,cs),
(1097,768,l),
(1844,1428,ls),
(1897,1474,o),
(1874,1536,o),
(1803,1536,cs),
(1730,1536,ls),
(1689,1536,o),
(1661,1522,o),
(1631,1495,cs),
(1001,938,l),
(371,1495,ls),
(341,1522,o),
(313,1536,o),
(272,1536,cs),
(195,1536,ls),
(126,1536,o),
(105,1474,o),
(158,1428,cs),
(905,768,l),
(905,80,ls),
(905,28,o),
(933,0,o),
(985,0,cs)
);
}
);
width = 2001;
}
);
unicode = 89;
},
{
glyphname = Z;
kernLeft = O;
kernRight = O;
lastChange = "2024-12-22 04:47:01 +0000";
layers = (
{
anchors = (
{
name = bottom;
pos = (1024,0);
},
{
name = center;
pos = (1024,768);
},
{
name = top;
pos = (1024,1536);
}
);
layerId = m01;
shapes = (
{
closed = 1;
nodes = (
(1840,0,ls),
(1892,0,o),
(1920,28,o),
(1920,80,cs),
(1920,96,ls),
(1920,148,o),
(1892,176,o),
(1840,176,cs),
(443,176,l),
(1873,1322,ls),
(1906,1349,o),
(1920,1378,o),
(1920,1420,cs),
(1920,1456,ls),
(1920,1508,o),
(1892,1536,o),
(1840,1536,cs),
(208,1536,ls),
(156,1536,o),
(128,1508,o),
(128,1456,cs),
(128,1440,ls),
(128,1388,o),
(156,1360,o),
(208,1360,cs),
(1604,1360,l),
(175,214,ls),
(142,187,o),
(128,158,o),
(128,116,cs),
(128,80,ls),
(128,28,o),
(156,0,o),
(208,0,cs)
);
}
);
width = 2048;
}
);
unicode = 90;
},
{
glyphname = Saltillo;
lastChange = "2024-12-22 05:27:04 +0000";
layers = (
{
layerId = m01;
shapes = (
{
closed = 1;
nodes = (
(216,496,ls),
(218,444,o),
(244,416,o),
(296,416,cs),
(312,416,ls),
(364,416,o),
(390,444,o),
(392,496,cs),
(432,1456,ls),
(434,1508,o),
(389,1536,o),
(337,1536,cs),
(271,1536,ls),
(219,1536,o),
(174,1508,o),
(176,1456,cs)
);
}
);
width = 608;
}
);
unicode = 42891;
},
{
glyphname = c;
kernLeft = c;
kernRight = c;
lastChange = "2024-12-22 04:53:19 +0000";
layers = (
{
anchors = (
{
name = bottom;
pos = (724,0);
},
{
name = top;
pos = (724,1024);
}
);
layerId = m01;
shapes = (
{
closed = 1;
nodes = (
(832,-24,ls),
(1146,-24,o),
(1314,43,o),
(1346,253,cs),
(1354,306,o),
(1322,336,o),
(1269,336,cs),
(1252,336,ls),
(1202,336,o),
(1180,310,o),
(1169,260,cs),
(1143,145,o),
(1045,120,o),
(818,120,cs),
(630,120,ls),
(360,120,o),
(272,159,o),
(272,499,cs),
(272,525,ls),
(272,865,o),
(360,904,o),
(630,904,cs),
(818,904,ls),
(1045,904,o),
(1143,879,o),
(1169,764,cs),
(1180,714,o),
(1202,688,o),
(1252,688,cs),
(1269,688,ls),
(1322,688,o),
(1354,718,o),
(1346,771,cs),
(1314,981,o),
(1146,1048,o),
(832,1048,cs),
(616,1048,ls),
(264,1048,o),
(96,964,o),
(96,528,cs),
(96,496,ls),
(96,60,o),
(264,-24,o),
(616,-24,cs)
);
}
);
width = 1443;
}
);
unicode = 99;
},
{
glyphname = e;
kernLeft = c;
kernRight = a;
lastChange = "2024-12-22 04:54:39 +0000";
layers = (
{
anchors = (
{
name = bottom;
pos = (691,0);
},
{
name = ogonek;
pos = (1034,10);
},
{
name = top;
pos = (691,1024);
}
);
layerId = m01;
shapes = (
{
closed = 1;
nodes = (
(825,-24,ls),
(1139,-24,o),
(1307,43,o),
(1339,253,cs),
(1347,306,o),
(1315,336,o),
(1262,336,cs),
(1245,336,ls),
(1195,336,o),
(1173,310,o),
(1162,260,cs),
(1136,145,o),
(1038,120,o),
(811,120,cs),
(630,120,ls),
(372,120,o),
(280,156,o),
(273,456,c),
(1270,456,ls),
(1322,456,o),
(1350,484,o),
(1350,520,cs),
(1350,538,ls),
(1347,964,o),
(1179,1048,o),
(830,1048,cs),
(616,1048,ls),
(267,1048,o),
(99,964,o),
(96,538,cs),
(96,496,ls),
(96,60,o),
(264,-24,o),
(616,-24,cs)
);
},
{
closed = 1;
nodes = (
(287,871,o),
(381,904,o),
(630,904,cs),
(816,904,ls),
(1065,904,o),
(1160,871,o),
(1172,600,c),
(274,600,l)
);
}
);
width = 1478;
}
);
unicode = 101;
},
{
glyphname = esh;
lastChange = "2024-12-21 05:39:19 +0000";
layers = (
{
layerId = m01;
shapes = (
{
closed = 1;
nodes = (
(451,-512,o),
(628,-373,o),
(628,40,cs),
(628,983,ls),
(628,1301,o),
(705,1355,o),
(915,1360,cs),
(969,1361,o),
(998,1387,o),
(998,1432,cs),
(998,1466,ls),
(998,1511,o),
(969,1536,o),
(915,1536,cs),
(613,1536,o),
(436,1397,o),
(436,984,cs),
(436,41,ls),
(436,-277,o),
(359,-331,o),
(149,-336,cs),
(95,-337,o),
(66,-363,o),
(66,-408,cs),
(66,-442,ls),
(66,-487,o),
(95,-512,o),
(149,-512,cs)
);
}
);
width = 1064;
}
);
unicode = 643;
},
{
glyphname = ezh;
lastChange = "2024-12-21 20:33:50 +0000";
layers = (
{
anchors = (
{
name = bottom;
pos = (629,-542);
},
{
name = top;
pos = (629,1024);
}
);
layerId = m01;
shapes = (
{
closed = 1;
nodes = (
(730,-510,ls),
(1024,-510,o),
(1192,-426,o),
(1192,-74,cs),
(1192,-48,ls),
(1192,304,o),
(1024,388,o),
(700,388,cs),
(688,388,l),
(1149,849,ls),
(1171,871,o),
(1192,893,o),
(1192,924,cs),
(1192,964,ls),
(1192,1003,o),
(1171,1024,o),
(1132,1024,cs),
(126,1024,ls),
(87,1024,o),
(66,1003,o),
(66,964,cs),
(66,940,ls),
(66,901,o),
(87,880,o),
(126,880,cs),
(934,880,l),
(372,318,ls),
(334,280,o),
(349,244,o),
(402,244,cs),
(684,244,ls),
(944,244,o),
(1016,212,o),
(1016,-50,cs),
(1016,-71,ls),
(1016,-333,o),
(944,-366,o),
(716,-366,cs),
(528,-366,ls),
(342,-366,o),
(236,-339,o),
(207,-194,cs),
(197,-142,o),
(169,-129,o),
(134,-164,cs),
(97,-201,ls),
(75,-223,o),
(65,-244,o),
(70,-276,cs),
(98,-451,o),
(268,-510,o),
(528,-510,cs)
);
}
);
width = 1324;
}
);
unicode = 658;
},
{
glyphname = f;
kernLeft = a;
lastChange = "2024-12-22 04:54:46 +0000";
layers = (
{
anchors = (
{
name = bottom;
pos = (576,0);
},
{
name = top;
pos = (576,1632);
}
);
layerId = m01;
shapes = (
{
closed = 1;
nodes = (
(400,1,ls),
(451,2,o),
(480,31,o),
(480,82,cs),
(480,1015,ls),
(480,1333,o),
(557,1387,o),
(941,1392,cs),
(995,1393,o),
(1024,1419,o),
(1024,1464,cs),
(1024,1466,ls),
(1024,1511,o),
(995,1537,o),
(941,1536,cs),
(455,1527,o),
(304,1429,o),
(304,1016,cs),
(304,80,ls),
(304,28,o),
(332,0,o),
(384,1,cs)
);
},
{
closed = 1;
nodes = (
(128,944,ls),
(128,908,o),
(156,880,o),
(208,880,cs),
(944,880,ls),
(996,880,o),
(1024,908,o),
(1024,944,cs),
(1024,960,ls),
(1024,996,o),
(996,1024,o),
(944,1024,cs),
(208,1024,ls),
(156,1024,o),
(128,996,o),
(128,960,cs)
);
}
);
width = 1024;
}
);
unicode = 102;
},
{
glyphname = g;
kernLeft = c;
kernRight = a;
lastChange = "2024-12-22 04:54:58 +0000";
layers = (
{
anchors = (
{
name = bottom;
pos = (752,-544);
},
{
name = top;
pos = (752,1048);
}
);
layerId = m01;
shapes = (
{
closed = 1;
nodes = (
(173,-176,o),
(141,-206,o),
(149,-259,cs),
(181,-469,o),
(349,-536,o),
(671,-536,cs),
(833,-536,ls),
(1185,-536,o),
(1353,-452,o),
(1353,-16,cs),
(1353,944,ls),
(1353,996,o),
(1325,1024,o),
(1273,1023,cs),
(1257,1023,ls),
(1206,1022,o),
(1177,993,o),
(1177,942,cs),
(1177,-15,ls),
(1177,-355,o),
(1089,-392,o),
(819,-392,cs),
(685,-392,ls),
(451,-392,o),
(352,-365,o),
(326,-251,cs),
(315,-202,o),
(293,-176,o),
(243,-176,cs),
(226,-176,ls)
);
},
{
pos = (1176,0);
ref = "_bowl-b";
scale = (-1,1);
}
);
width = 1481;
}
);
unicode = 103;
},
{
glyphname = glottalstop;
lastChange = "2024-12-22 05:31:39 +0000";
layers = (
{
layerId = m01;
shapes = (
{
closed = 1;
nodes = (
(1409,750,o),
(1577,834,o),
(1577,1127,cs),
(1577,1159,ls),
(1577,1452,o),
(1409,1536,o),
(1062,1536,cs),
(718,1536,ls),
(409,1536,o),
(241,1469,o),
(209,1259,cs),
(201,1206,o),
(233,1176,o),
(286,1176,cs),
(303,1176,ls),
(353,1176,o),
(375,1202,o),
(386,1252,cs),
(412,1367,o),
(510,1392,o),
(732,1392,cs),
(1048,1392,ls),
(1313,1392,o),
(1401,1353,o),
(1401,1156,cs),
(1401,1130,ls),
(1401,933,o),
(1313,894,o),
(1180,894,cs),
(1064,894,ls),
(962,894,o),
(794,810,o),
(794,517,cs),
(794,465,o),
(822,437,o),
(874,437,cs),
(890,437,ls),
(942,437,o),
(970,465,o),
(970,514,cs),
(970,711,o),
(1058,750,o),
(1110,750,cs),
(1240,750,ls)
);
}
);
width = 1769;
}
);
unicode = 660;
},
{
glyphname = idotless;
lastChange = "2024-12-22 04:55:20 +0000";
layers = (
{
anchors = (
{
name = bottom;
pos = (216,0);
},
{
name = ogonek;
pos = (216,10);
},
{
name = top;
pos = (216,1024);
}
);
layerId = m01;
shapes = (
{
closed = 1;
nodes = (
(128,80,ls),
(128,28,o),
(156,0,o),
(208,0,cs),
(224,0,ls),
(276,0,o),
(304,28,o),
(304,80,cs),
(304,944,ls),
(304,996,o),
(276,1024,o),
(224,1024,cs),
(208,1024,ls),
(156,1024,o),
(128,996,o),
(128,944,cs)
);
}
);
width = 432;
}
);
unicode = 305;
},
{
glyphname = jdotless;
kernLeft = j;
kernRight = j;
lastChange = "2024-12-22 05:06:05 +0000";
layers = (
{
anchors = (
{
name = bottom;
pos = (274,-512);
},
{
name = top;
pos = (360,1024);
}
);
layerId = m01;
shapes = (
{
closed = 1;
nodes = (
(287,-544,o),
(448,-405,o),
(448,8,cs),
(448,944,ls),
(448,996,o),
(420,1024,o),
(368,1023,cs),
(352,1023,ls),
(301,1022,o),
(272,993,o),
(272,942,cs),
(272,9,ls),
(272,-309,o),
(195,-363,o),
(51,-368,cs),
(-3,-370,o),
(-32,-395,o),
(-32,-440,cs),
(-32,-474,ls),
(-32,-519,o),
(-3,-544,o),
(51,-544,cs)
);
}
);
width = 624;
}
);
unicode = 567;
},
{
glyphname = k;
kernLeft = a;
lastChange = "2024-12-22 04:56:54 +0000";
layers = (
{
anchors = (
{
name = bottom;
pos = (673,0);
},
{
name = top;
pos = (220,1632);
}
);
layerId = m01;
shapes = (
{
closed = 1;
nodes = (
(1212,0,ls),
(1290,0,o),
(1303,52,o),
(1236,95,cs),
(489,576,l),
(1204,928,ls),
(1273,962,o),
(1253,1024,o),
(1177,1024,cs),
(1110,1024,ls),
(1071,1024,o),
(1043,1009,o),
(1005,990,cs),
(307,642,l),
(286,642,l),
(286,510,l),
(299,510,l),
(1055,30,ls),
(1090,8,o),
(1121,0,o),
(1160,0,cs)
);
},
{
ref = "_hstem-s-CH";
}
);
width = 1279;
}
);
unicode = 107;
},
{
glyphname = eng;
lastChange = "2024-12-21 04:57:04 +0000";
layers = (
{
anchors = (
{
name = bottom;
pos = (1110,-512);
},
{
name = top;
pos = (1196,1024);
}
);
layerId = m01;
shapes = (
{
ref = n;
},
{
closed = 1;
nodes = (
(1123,-544,o),
(1284,-405,o),
(1284,8,cs),
(1284,433,ls),
(1284,485,o),
(1256,512,o),
(1204,512,cs),
(1188,512,ls),
(1137,512,o),
(1108,482,o),
(1108,431,cs),
(1108,9,ls),
(1108,-309,o),
(1031,-363,o),
(887,-368,cs),
(833,-370,o),
(804,-395,o),
(804,-440,cs),
(804,-474,ls),
(804,-519,o),
(833,-544,o),
(887,-544,cs)
);
}
);
width = 1962;
}
);
unicode = 331;
},
{
glyphname = o;
kernLeft = c;
kernRight = c;
lastChange = "2024-12-22 04:53:25 +0000";
layers = (
{
anchors = (
{
name = bottom;
pos = (724,0);
},
{
name = center;
pos = (724,512);
},
{
name = ogonek;
pos = (1284,10);
},
{
name = top;
pos = (724,1024);
},
{
name = topright;
pos = (1209,964);
}
);
layerId = m01;
shapes = (
{
closed = 1;
nodes = (
(96,496,ls),
(96,60,o),
(264,-24,o),
(616,-24,cs),
(832,-24,ls),
(1184,-24,o),
(1352,60,o),
(1352,496,cs),
(1352,528,ls),
(1352,964,o),
(1184,1048,o),
(832,1048,cs),
(616,1048,ls),
(264,1048,o),
(96,964,o),
(96,528,cs)
);
},
{
closed = 1;
nodes = (
(272,865,o),
(360,904,o),
(630,904,cs),
(818,904,ls),
(1088,904,o),
(1176,865,o),
(1176,525,cs),
(1176,499,ls),
(1176,159,o),
(1088,120,o),
(818,120,cs),
(630,120,ls),
(360,120,o),
(272,159,o),
(272,499,cs),
(272,525,ls)
);
}
);
width = 1448;
}
);
unicode = 111;
},
{
glyphname = r;
lastChange = "2024-12-22 04:58:20 +0000";
layers = (
{
anchors = (
{
name = bottom;
pos = (234,0);
},
{
name = top;
pos = (426,1024);
}
);
layerId = m01;
shapes = (
{
closed = 1;
nodes = (
(278,608,ls),
(307,608,o),
(319,634,o),
(330,683,cs),
(357,810,o),
(461,904,o),
(740,904,cs),
(792,904,ls),
(844,904,o),
(872,930,o),
(872,976,cs),
(872,976,ls),
(872,1022,o),
(844,1048,o),
(792,1048,cs),
(740,1048,ls),
(491,1048,o),
(280,934,o),
(241,692,cs),
(232,638,o),
(250,608,o),
(278,608,cs)
);
},
{
pos = (14,0);
ref = "_hstem-s-xH";
}
);
width = 984;
}
);
unicode = 114;
},
{
glyphname = s;
kernLeft = a;
kernRight = a;
lastChange = "2024-12-22 04:58:24 +0000";
layers = (
{
anchors = (
{
name = bottom;
pos = (757,-24);
},
{
name = top;
pos = (757,1024);
}
);
layerId = m01;
shapes = (
{
closed = 1;
nodes = (
(865,-24,ls),
(1217,-24,o),
(1385,60,o),
(1385,264,cs),
(1385,296,ls),
(1385,401,o),
(1343,470,o),
(1256,514,cs),
(1170,558,o),
(1040,581,o),
(865,583,cs),
(663,585,ls),
(393,588,o),
(305,621,o),
(305,731,cs),
(305,757,ls),
(305,865,o),
(393,904,o),
(663,904,cs),
(881,904,ls),
(1084,904,o),
(1182,879,o),
(1208,764,cs),
(1219,714,o),
(1241,688,o),
(1291,688,cs),
(1308,688,ls),
(1358,688,o),
(1393,718,o),
(1385,771,cs),
(1353,981,o),
(1185,1048,o),
(895,1048,cs),
(649,1048,ls),
(297,1048,o),
(129,964,o),
(129,760,cs),
(129,728,ls),
(129,623,o),
(171,554,o),
(258,510,cs),
(344,466,o),
(474,443,o),
(649,441,cs),
(851,439,ls),
(1121,436,o),
(1209,403,o),
(1209,293,cs),
(1209,267,ls),
(1209,159,o),
(1121,120,o),
(851,120,cs),
(633,120,ls),
(430,120,o),
(332,145,o),
(306,260,cs),
(295,310,o),
(273,336,o),
(223,336,cs),
(206,336,ls),
(156,336,o),
(121,306,o),
(129,253,cs),
(161,43,o),
(329,-24,o),
(619,-24,cs)
);
}
);
width = 1514;
}
);
unicode = 115;
},
{
glyphname = germandbls;
lastChange = "2024-12-15 15:30:46 +0000";
layers = (
{
anchors = (
{
name = bottom;
pos = (404,0);
},
{
name = top;
pos = (404,1632);
}
);
layerId = m01;
shapes = (
{
closed = 1;
nodes = (
(853,0,ls),
(1189,0,o),
(1357,84,o),
(1357,412,cs),
(1357,444,ls),
(1357,619,o),
(1284,728,o),
(1100,774,c),
(1241,822,o),
(1293,919,o),
(1293,1092,cs),
(1293,1124,ls),
(1293,1452,o),
(1125,1536,o),
(789,1536,cs),
(769,1536,ls),
(283,1527,o),
(132,1429,o),
(132,1016,cs),
(132,80,ls),
(132,28,o),
(160,0,o),
(212,1,cs),
(228,1,ls),
(279,2,o),
(308,31,o),
(308,82,cs),
(308,1015,ls),
(308,1333,o),
(385,1392,o),
(769,1392,cs),
(775,1392,ls),
(1029,1392,o),
(1117,1363,o),
(1117,1121,cs),
(1117,1095,ls),
(1117,879,o),
(1029,840,o),
(852,840,cs),
(646,840,ls),
(607,840,o),
(586,819,o),
(586,780,cs),
(586,756,ls),
(586,717,o),
(607,696,o),
(646,696,cs),
(839,696,ls),
(1093,696,o),
(1181,657,o),
(1181,441,cs),
(1181,415,ls),
(1181,173,o),
(1093,144,o),
(839,144,cs),
(646,144,ls),
(607,144,o),
(586,123,o),
(586,84,cs),
(586,60,ls),
(586,21,o),
(607,0,o),
(646,0,cs)
);
}
);
width = 1445;
}
);
unicode = 223;
},
{
glyphname = t;
lastChange = "2024-12-22 05:03:12 +0000";
layers = (
{
anchors = (
{
name = bottom;
pos = (753,0);
},
{
name = center;
pos = (753,512);
},
{
name = top;
pos = (753,1376);
},
{
name = topright;
pos = (1262,1632);
}
);
layerId = m01;
shapes = (
{
closed = 1;
nodes = (
(910,0,ls),
(1144,0,o),
(1306,73,o),
(1328,427,cs),
(1331,482,o),
(1301,512,o),
(1249,512,cs),
(1233,512,ls),
(1182,512,o),
(1155,483,o),
(1152,429,cs),
(1137,176,o),
(1050,144,o),
(896,144,cs),
(610,144,ls),
(440,144,o),
(352,184,o),
(352,448,cs),
(352,880,l),
(1186,880,ls),
(1238,880,o),
(1266,908,o),
(1266,944,cs),
(1266,960,ls),
(1266,996,o),
(1238,1024,o),
(1186,1024,cs),
(352,1024,l),
(352,1296,ls),
(352,1348,o),
(324,1376,o),
(272,1376,cs),
(256,1376,ls),
(204,1376,o),
(176,1348,o),
(176,1296,cs),
(176,449,ls),
(176,85,o),
(344,0,o),
(596,0,cs)
);
}
);
width = 1472;
}
);
unicode = 116;
},
{
glyphname = ubar;
lastChange = "2024-12-21 05:47:01 +0000";
layers = (
{
layerId = m01;
shapes = (
{
alignment = -1;
pos = (132,0);
ref = u;
},
{
closed = 1;
nodes = (
(66,484,ls),
(66,445,o),
(87,424,o),
(126,424,cs),
(1422,424,ls),
(1461,424,o),
(1482,445,o),
(1482,484,cs),
(1482,540,ls),
(1482,579,o),
(1461,600,o),
(1422,600,cs),
(126,600,ls),
(87,600,o),
(66,579,o),
(66,540,cs)
);
}
);
width = 1549;
}
);
unicode = 649;
},
{
glyphname = v;
kernLeft = v;
kernRight = v;
lastChange = "2024-12-22 04:59:18 +0000";
layers = (
{
anchors = (
{
name = bottom;
pos = (780,0);
},
{
name = top;
pos = (780,1024);
}
);
layerId = m01;
shapes = (
{
closed = 1;
nodes = (
(872,0,ls),
(901,0,o),
(920,12,o),
(935,37,cs),
(1486,961,ls),
(1507,996,o),
(1493,1024,o),
(1457,1024,cs),
(1357,1024,ls),
(1328,1024,o),
(1309,1012,o),
(1294,987,cs),
(780,144,l),
(266,987,ls),
(251,1012,o),
(232,1024,o),
(203,1024,cs),
(103,1024,ls),
(67,1024,o),
(53,996,o),
(74,961,cs),
(625,37,ls),
(640,12,o),
(659,0,o),
(688,0,cs)
);
}
);
width = 1560;
}
);
unicode = 118;
},
{
glyphname = w;
kernLeft = w;
kernRight = w;
lastChange = "2024-12-22 04:59:25 +0000";
layers = (
{
anchors = (
{
name = bottom;
pos = (1083,0);
},
{
name = top;
pos = (1083,1024);
}
);
layerId = m01;
shapes = (
{
closed = 1;
nodes = (
(703,0,ls),
(733,0,o),
(754,13,o),
(765,41,cs),
(1083,880,l),
(1401,41,ls),
(1412,13,o),
(1433,0,o),
(1463,0,cs),
(1666,0,ls),
(1696,0,o),
(1717,13,o),
(1728,41,cs),
(2088,961,ls),
(2103,999,o),
(2087,1024,o),
(2047,1024,cs),
(1960,1024,ls),
(1930,1024,o),
(1909,1011,o),
(1898,983,cs),
(1580,144,l),
(1549,144,l),
(1231,983,ls),
(1220,1011,o),
(1199,1024,o),
(1169,1024,cs),
(997,1024,ls),
(967,1024,o),
(946,1011,o),
(935,983,cs),
(617,144,l),
(586,144,l),
(268,983,ls),
(257,1011,o),
(236,1024,o),
(206,1024,cs),
(115,1024,ls),
(77,1024,o),
(63,999,o),
(78,961,cs),
(438,41,ls),
(449,13,o),
(470,0,o),
(500,0,cs)
);
}
);
width = 2166;
}
);
unicode = 119;
},
{
glyphname = x;
kernLeft = c;
kernRight = c;
lastChange = "2024-12-22 04:59:35 +0000";
layers = (
{
anchors = (
{
name = bottom;
pos = (703,0);
},
{
name = top;
pos = (703,1024);
}
);
layerId = m01;
shapes = (
{
closed = 1;
nodes = (
(1240,0,ls),
(1312,0,o),
(1332,50,o),
(1279,99,cs),
(826,520,l),
(1262,925,ls),
(1315,974,o),
(1295,1024,o),
(1223,1024,cs),
(1185,1024,ls),
(1145,1024,o),
(1116,1012,o),
(1086,985,cs),
(706,632,l),
(325,985,ls),
(295,1012,o),
(266,1024,o),
(226,1024,cs),
(161,1024,ls),
(103,1024,o),
(96,974,o),
(149,925,cs),
(585,520,l),
(132,99,ls),
(79,50,o),
(86,0,o),
(144,0,cs),
(209,0,ls),
(249,0,o),
(278,12,o),
(308,39,cs),
(706,408,l),
(1103,39,ls),
(1133,12,o),
(1162,0,o),
(1202,0,cs)
);
}
);
width = 1405;
}
);
unicode = 120;
},
{
glyphname = y;
kernRight = w;
lastChange = "2024-12-22 04:59:50 +0000";
layers = (
{
anchors = (
{
name = bottom;
pos = (713,-271);
},
{
name = top;
pos = (713,1024);
}
);
layerId = m01;
shapes = (
{
closed = 1;
nodes = (
(531,-505,o),
(574,-448,o),
(831,0,cs),
(1364,928,ls),
(1396,984,o),
(1372,1024,o),
(1309,1024,cs),
(1283,1024,ls),
(1239,1024,o),
(1209,1008,o),
(1187,969,cs),
(713,144,l),
(239,969,ls),
(217,1008,o),
(187,1024,o),
(143,1024,cs),
(117,1024,ls),
(54,1024,o),
(30,984,o),
(62,928,cs),
(563,55,ls),
(585,16,o),
(614,0,o),
(630,0,c),
(479,-275,o),
(443,-325,o),
(303,-334,cs),
(251,-337,o),
(224,-364,o),
(224,-415,cs),
(224,-432,ls),
(224,-484,o),
(252,-512,o),
(304,-511,cs)
);
}
);
width = 1450;
}
);
unicode = 121;
},
{
glyphname = z;
kernLeft = a;
kernRight = a;
lastChange = "2024-12-22 04:59:57 +0000";
layers = (
{
anchors = (
{
name = bottom;
pos = (752,0);
},
{
name = center;
pos = (752,512);
},
{
name = top;
pos = (752,1024);
}
);
layerId = m01;
shapes = (
{
closed = 1;
nodes = (
(128,958,ls),
(128,915,o),
(156,892,o),
(208,892,cs),
(1136,892,l),
(176,169,ls),
(142,144,o),
(128,113,o),
(128,71,cs),
(128,66,ls),
(128,23,o),
(156,0,o),
(208,0,cs),
(1296,0,ls),
(1348,0,o),
(1376,23,o),
(1376,66,cs),
(1376,66,ls),
(1376,109,o),
(1348,132,o),
(1296,132,cs),
(368,132,l),
(1328,855,ls),
(1362,880,o),
(1376,911,o),
(1376,953,cs),
(1376,958,ls),
(1376,1001,o),
(1348,1024,o),
(1296,1024,cs),
(208,1024,ls),
(156,1024,o),
(128,1001,o),
(128,958,cs)
);
}
);
width = 1504;
}
);
unicode = 122;
},
{
glyphname = ordfeminine;
lastChange = "2024-12-19 02:21:52 +0000";
layers = (
{
layerId = m01;
shapes = (
{
closed = 1;
nodes = (
(793,1243,o),
(715,1298,o),
(503,1298,cs),
(404,1298,ls),
(175,1298,o),
(66,1243,o),
(66,1095,cs),
(66,1073,ls),
(66,925,o),
(175,870,o),
(404,870,cs),
(503,870,ls),
(715,870,o),
(793,925,o),
(793,1073,cs),
(793,1095,ls)
);
},
{
closed = 1;
nodes = (
(736,1075,ls),
(736,1015,o),
(676,990,o),
(503,990,cs),
(413,990,ls),
(247,990,o),
(190,1015,o),
(190,1075,cs),
(190,1093,ls),
(190,1153,o),
(247,1178,o),
(413,1178,cs),
(503,1178,ls),
(672,1178,o),
(736,1153,o),
(736,1093,cs)
);
},
{
closed = 1;
nodes = (
(159,1326,ls),
(191,1326,o),
(202,1344,o),
(213,1375,cs),
(229,1422,o),
(294,1440,o),
(425,1440,cs),
(503,1440,ls),
(661,1440,o),
(718,1416,o),
(718,1222,cs),
(718,922,ls),
(718,889,o),
(737,870,o),
(770,870,cs),
(798,870,ls),
(832,870,o),
(850,887,o),
(850,921,cs),
(850,1222,ls),
(850,1506,o),
(723,1560,o),
(512,1560,cs),
(416,1560,ls),
(227,1560,o),
(102,1517,o),
(81,1380,cs),
(76,1346,o),
(97,1326,o),
(132,1326,cs)
);
}
);
width = 916;
}
);
unicode = 170;
},
{
glyphname = ordmasculine;
lastChange = "2024-12-19 02:22:11 +0000";
layers = (
{
layerId = m01;
shapes = (
{
closed = 1;
nodes = (
(66,1188,ls),
(66,945,o),
(229,846,o),
(424,846,cs),
(509,846,ls),
(704,846,o),
(866,945,o),
(866,1188,cs),
(866,1218,ls),
(866,1461,o),
(704,1560,o),
(509,1560,cs),
(424,1560,ls),
(229,1560,o),
(66,1461,o),
(66,1218,cs)
);
},
{
closed = 1;
nodes = (
(210,1360,o),
(300,1440,o),
(437,1440,cs),
(495,1440,ls),
(633,1440,o),
(722,1360,o),
(722,1216,cs),
(722,1191,ls),
(722,1047,o),
(633,966,o),
(495,966,cs),
(437,966,ls),
(300,966,o),
(210,1047,o),
(210,1191,cs),
(210,1216,ls)
);
}
);
width = 932;
}
);
unicode = 186;
},
{
glyphname = Delta;
lastChange = "2024-12-21 03:54:16 +0000";
layers = (
{
anchors = (
{
name = bottom;
pos = (1052,0);
},
{
name = top;
pos = (1052,1536);
}
);
layerId = m01;
shapes = (
{
closed = 1;
nodes = (
(920,1536,o),
(890,1520,o),
(868,1481,cs),
(80,96,ls),
(48,40,o),
(73,0,o),
(136,0,cs),
(1969,0,ls),
(2032,0,o),
(2056,40,o),
(2024,96,cs),
(1236,1481,ls),
(1214,1520,o),
(1184,1536,o),
(1140,1536,cs),
(964,1536,ls)
);
},
{
closed = 1;
nodes = (
(1020,1360,l),
(1084,1360,l),
(1757,176,l),
(347,176,l)
);
}
);
width = 2104;
}
);
unicode = 916;
},
{
glyphname = Xi;
lastChange = "2024-12-22 01:36:00 +0000";
layers = (
{
layerId = m01;
shapes = (
{
closed = 1;
nodes = (
(88,60,ls),
(88,21,o),
(109,0,o),
(148,0,cs),
(1692,0,ls),
(1731,0,o),
(1752,21,o),
(1752,60,cs),
(1752,116,ls),
(1752,155,o),
(1731,176,o),
(1692,176,cs),
(148,176,ls),
(109,176,o),
(88,155,o),
(88,116,cs)
);
},
{
closed = 1;
nodes = (
(88,1420,ls),
(88,1381,o),
(109,1360,o),
(148,1360,cs),
(1692,1360,ls),
(1731,1360,o),
(1752,1381,o),
(1752,1420,cs),
(1752,1476,ls),
(1752,1515,o),
(1731,1536,o),
(1692,1536,cs),
(148,1536,ls),
(109,1536,o),
(88,1515,o),
(88,1476,cs)
);
},
{
closed = 1;
nodes = (
(248,740,ls),
(248,701,o),
(269,680,o),
(308,680,cs),
(1532,680,ls),
(1571,680,o),
(1592,701,o),
(1592,740,cs),
(1592,796,ls),
(1592,835,o),
(1571,856,o),
(1532,856,cs),
(308,856,ls),
(269,856,o),
(248,835,o),
(248,796,cs)
);
}
);
width = 1840;
}
);
unicode = 926;
},
{
glyphname = Pi;
lastChange = "2024-12-22 01:36:36 +0000";
layers = (
{
layerId = m01;
shapes = (
{
closed = 1;
nodes = (
(392,0,ls),
(444,0,o),
(472,28,o),
(472,80,cs),
(472,1360,l),
(1496,1360,l),
(1496,80,ls),
(1496,28,o),
(1524,0,o),
(1576,0,cs),
(1608,0,ls),
(1660,0,o),
(1688,28,o),
(1688,80,cs),
(1688,1360,l),
(1800,1360,ls),
(1852,1360,o),
(1880,1388,o),
(1880,1440,cs),
(1880,1456,ls),
(1880,1508,o),
(1852,1536,o),
(1800,1536,cs),
(168,1536,ls),
(116,1536,o),
(88,1508,o),
(88,1456,cs),
(88,1440,ls),
(88,1388,o),
(116,1360,o),
(168,1360,cs),
(280,1360,l),
(280,80,ls),
(280,28,o),
(308,0,o),
(360,0,cs)
);
}
);
width = 1968;
}
);
unicode = 928;
},
{
glyphname = Sigma;
lastChange = "2024-12-22 01:38:50 +0000";
layers = (
{
layerId = m01;
shapes = (
{
closed = 1;
nodes = (
(1856,0,ls),
(1908,0,o),
(1936,28,o),
(1936,80,cs),
(1936,96,ls),
(1936,148,o),
(1908,176,o),
(1856,176,cs),
(468,176,l),
(1239,711,ls),
(1284,742,o),
(1284,794,o),
(1239,825,cs),
(468,1360,l),
(1856,1360,ls),
(1908,1360,o),
(1936,1388,o),
(1936,1440,cs),
(1936,1456,ls),
(1936,1508,o),
(1908,1536,o),
(1856,1536,cs),
(224,1536,ls),
(172,1536,o),
(144,1508,o),
(144,1456,cs),
(144,1419,ls),
(144,1378,o),
(154,1343,o),
(187,1320,cs),
(976,768,l),
(187,216,ls),
(154,193,o),
(144,158,o),
(144,117,cs),
(144,80,ls),
(144,28,o),
(172,0,o),
(224,0,cs)
);
}
);
width = 2024;
}
);
unicode = 931;
},
{
glyphname = Psi;
lastChange = "2024-12-22 01:33:29 +0000";
layers = (
{
anchors = (
{
name = bottom;
pos = (1028,0);
},
{
name = ogonek;
pos = (1028,10);
},
{
name = top;
pos = (1028,1536);
},
{
name = topright;
pos = (1944,1521);
}
);
layerId = m01;
shapes = (
{
closed = 1;
nodes = (
);
},
{
closed = 1;
nodes = (
(1812,1536,ls),
(1760,1536,o),
(1732,1508,o),
(1732,1456,cs),
(1732,1037,ls),
(1732,747,o),
(1600,688,o),
(1171,688,cs),
(885,688,ls),
(456,688,o),
(324,747,o),
(324,1037,cs),
(324,1456,ls),
(324,1508,o),
(296,1536,o),
(244,1536,cs),
(212,1536,ls),
(160,1536,o),
(132,1508,o),
(132,1456,cs),
(132,1032,ls),
(132,638,o),
(384,512,o),
(864,512,cs),
(1192,512,ls),
(1672,512,o),
(1924,638,o),
(1924,1032,cs),
(1924,1456,ls),
(1924,1508,o),
(1896,1536,o),
(1844,1536,cs)
);
},
{
alignment = -1;
pos = (756,0);
ref = "_hstem-CH";
}
);
width = 2056;
}
);
unicode = 936;
},
{
glyphname = Omega;
lastChange = "2024-12-14 05:36:06 +0000";
layers = (
{
anchors = (
{
name = bottom;
pos = (1032,0);
},
{
name = center;
pos = (1032,768);
},
{
name = ogonek;
pos = (1858,10);
},
{
name = top;
pos = (1032,1536);
},
{
name = topleft;
pos = (20,1536);
},
{
name = topright;
pos = (2044,1536);
}
);
layerId = m01;
shapes = (
{
closed = 1;
nodes = (
(856,0,l),
(856,432,ls),
(856,483,o),
(827,512,o),
(773,513,cs),
(395,521,o),
(280,591,o),
(280,877,cs),
(280,916,ls),
(280,1334,o),
(412,1392,o),
(889,1392,cs),
(1175,1392,ls),
(1652,1392,o),
(1784,1334,o),
(1784,916,cs),
(1784,877,ls),
(1784,591,o),
(1669,521,o),
(1291,513,cs),
(1237,512,o),
(1208,483,o),
(1208,432,cs),
(1208,0,l),
(1896,0,ls),
(1948,0,o),
(1976,28,o),
(1976,80,cs),
(1976,96,ls),
(1976,148,o),
(1948,176,o),
(1896,176,cs),
(1400,176,l),
(1400,341,l),
(1779,369,o),
(1976,510,o),
(1976,872,cs),
(1976,920,ls),
(1976,1442,o),
(1724,1568,o),
(1196,1568,cs),
(868,1568,ls),
(340,1568,o),
(88,1442,o),
(88,920,cs),
(88,872,ls),
(88,510,o),
(285,369,o),
(664,341,c),
(664,176,l),
(168,176,ls),
(116,176,o),
(88,148,o),
(88,96,cs),
(88,80,ls),
(88,28,o),
(116,0,o),
(168,0,cs)
);
}
);
width = 2064;
}
);
unicode = 937;
},
{
glyphname = mu;
lastChange = "2024-12-21 04:00:02 +0000";
layers = (
{
layerId = m01;
shapes = (
{
closed = 1;
nodes = (
(228,-512,ls),
(280,-512,o),
(308,-484,o),
(308,-432,cs),
(308,142,l),
(396,30,o),
(536,-24,o),
(666,-24,cs),
(764,-24,ls),
(910,-24,o),
(1024,-10,o),
(1108,39,c),
(1112,-7,o),
(1139,-32,o),
(1188,-32,cs),
(1204,-32,ls),
(1256,-32,o),
(1284,-4,o),
(1284,48,cs),
(1284,944,ls),
(1284,996,o),
(1256,1024,o),
(1204,1024,cs),
(1188,1024,ls),
(1136,1024,o),
(1108,996,o),
(1108,944,cs),
(1108,499,ls),
(1108,159,o),
(1020,120,o),
(750,120,cs),
(666,120,ls),
(406,120,o),
(308,253,o),
(308,416,cs),
(308,944,ls),
(308,996,o),
(280,1024,o),
(228,1024,cs),
(212,1024,ls),
(160,1024,o),
(132,996,o),
(132,944,cs),
(132,-432,ls),
(132,-484,o),
(160,-512,o),
(212,-512,cs)
);
}
);
width = 1350;
}
);
unicode = 956;
},
{
glyphname = pi;
lastChange = "2024-12-22 01:40:26 +0000";
layers = (
{
layerId = m01;
shapes = (
{
closed = 1;
nodes = (
(360,0,ls),
(412,0,o),
(440,28,o),
(440,80,cs),
(440,880,l),
(1112,880,l),
(1112,80,ls),
(1112,28,o),
(1140,0,o),
(1192,0,cs),
(1208,0,ls),
(1260,0,o),
(1288,28,o),
(1288,80,cs),
(1288,880,l),
(1404,880,ls),
(1443,880,o),
(1464,901,o),
(1464,940,cs),
(1464,964,ls),
(1464,1003,o),
(1443,1024,o),
(1404,1024,cs),
(148,1024,ls),
(109,1024,o),
(88,1003,o),
(88,964,cs),
(88,940,ls),
(88,901,o),
(109,880,o),
(148,880,cs),
(264,880,l),
(264,80,ls),
(264,28,o),
(292,0,o),
(344,0,cs)
);
}
);
width = 1552;
}
);
unicode = 960;
},
{
glyphname = zero;
kernLeft = O;
kernRight = O;
lastChange = "2024-12-22 05:09:13 +0000";
layers = (
{
anchors = (
{
name = bottom;
pos = (1024,0);
},
{
name = center;
pos = (1024,768);
},
{
name = ogonek;
pos = (1850,10);
},
{
name = top;
pos = (1024,1536);
},
{
name = topleft;
pos = (12,1536);
},
{
name = topright;
pos = (2036,1536);
}
);
layerId = m01;
shapes = (
{
closed = 1;
nodes = (
(128,744,ls),
(128,190,o),
(468,-32,o),
(908,-32,cs),
(1140,-32,ls),
(1580,-32,o),
(1920,190,o),
(1920,744,cs),
(1920,792,ls),
(1920,1346,o),
(1580,1568,o),
(1140,1568,cs),
(908,1568,ls),
(468,1568,o),
(128,1346,o),
(128,792,cs)
);
},
{
closed = 1;
nodes = (
(320,1238,o),
(540,1392,o),
(929,1392,cs),
(1119,1392,ls),
(1508,1392,o),
(1728,1238,o),
(1728,788,cs),
(1728,749,ls),
(1728,299,o),
(1508,144,o),
(1119,144,cs),
(929,144,ls),
(540,144,o),
(320,299,o),
(320,749,cs),
(320,788,ls)
);
}
);
width = 2048;
}
);
unicode = 48;
},
{
glyphname = one;
kernRight = O;
lastChange = "2024-12-22 05:16:29 +0000";
layers = (
{
layerId = m01;
shapes = (
{
closed = 1;
nodes = (
(1840,0,ls),
(1892,0,o),
(1920,28,o),
(1920,80,cs),
(1920,96,ls),
(1920,148,o),
(1892,176,o),
(1840,176,cs),
(1248,176,l),
(1248,1476,ls),
(1248,1515,o),
(1227,1536,o),
(1188,1536,cs),
(939,1536,ls),
(909,1536,o),
(887,1527,o),
(865,1505,cs),
(395,1035,ls),
(368,1008,o),
(368,978,o),
(395,951,cs),
(442,904,ls),
(469,877,o),
(499,877,o),
(526,904,cs),
(982,1360,l),
(1056,1360,l),
(1056,176,l),
(400,176,ls),
(348,176,o),
(320,148,o),
(320,96,cs),
(320,80,ls),
(320,28,o),
(348,0,o),
(400,0,cs)
);
}
);
width = 2048;
}
);
unicode = 49;
},
{
glyphname = two;
kernLeft = O;
kernRight = O;
lastChange = "2024-12-22 05:12:05 +0000";
layers = (
{
anchors = (
{
name = bottom;
pos = (1071,0);
},
{
name = top;
pos = (1071,1536);
}
);
layerId = m01;
shapes = (
{
closed = 1;
nodes = (
(1840,0,ls),
(1892,0,o),
(1920,28,o),
(1920,80,cs),
(1920,96,ls),
(1920,148,o),
(1892,176,o),
(1840,176,cs),
(320,176,l),
(320,324,ls),
(320,509,o),
(453,519,o),
(929,563,cs),
(1134,582,ls),
(1390,606,o),
(1583,608,o),
(1711,668,cs),
(1851,729,o),
(1920,831,o),
(1920,992,cs),
(1920,1136,ls),
(1920,1442,o),
(1668,1568,o),
(1140,1568,cs),
(914,1568,ls),
(419,1568,o),
(167,1459,o),
(134,1114,cs),
(129,1060,o),
(160,1032,o),
(212,1032,cs),
(244,1032,ls),
(295,1032,o),
(321,1065,o),
(326,1110,cs),
(350,1333,o),
(498,1376,o),
(935,1376,cs),
(1119,1376,ls),
(1596,1376,o),
(1728,1317,o),
(1728,1131,cs),
(1728,996,ls),
(1728,811,o),
(1595,801,o),
(1119,757,cs),
(914,738,ls),
(658,714,o),
(465,712,o),
(337,652,cs),
(197,591,o),
(128,489,o),
(128,328,cs),
(128,80,ls),
(128,28,o),
(156,0,o),
(208,0,cs)
);
}
);
width = 2048;
}
);
unicode = 50;
},
{
glyphname = three;
kernLeft = O;
kernRight = O;
lastChange = "2024-12-22 05:12:24 +0000";
layers = (
{
anchors = (
{
name = bottom;
pos = (-234,0);
},
{
name = top;
pos = (-234,1536);
}
);
layerId = m01;
shapes = (
{
closed = 1;
nodes = (
(1140,-32,ls),
(1668,-32,o),
(1920,94,o),
(1920,388,cs),
(1920,436,ls),
(1920,572,o),
(1846,695,o),
(1693,768,c),
(1814,841,o),
(1888,964,o),
(1888,1100,cs),
(1888,1148,ls),
(1888,1442,o),
(1636,1568,o),
(1140,1568,cs),
(905,1568,ls),
(414,1568,o),
(162,1459,o),
(129,1114,cs),
(124,1061,o),
(155,1032,o),
(207,1032,cs),
(239,1032,ls),
(290,1032,o),
(315,1059,o),
(321,1110,cs),
(345,1344,o),
(493,1392,o),
(926,1392,cs),
(1119,1392,ls),
(1564,1392,o),
(1696,1334,o),
(1696,1144,cs),
(1696,1105,ls),
(1696,915,o),
(1564,856,o),
(1119,856,cs),
(957,856,ls),
(905,856,o),
(877,828,o),
(877,776,cs),
(877,760,ls),
(877,708,o),
(905,680,o),
(957,680,cs),
(1119,680,ls),
(1596,680,o),
(1728,622,o),
(1728,432,cs),
(1728,393,ls),
(1728,203,o),
(1596,144,o),
(1119,144,cs),
(926,144,ls),
(493,144,o),
(345,193,o),
(321,426,cs),
(315,477,o),
(290,504,o),
(239,504,cs),
(207,504,ls),
(155,504,o),
(124,475,o),
(129,422,cs),
(162,77,o),
(414,-32,o),
(905,-32,cs)
);
}
);
width = 2048;
}
);
unicode = 51;
},
{
glyphname = four;
kernLeft = O;
kernRight = O;
lastChange = "2024-12-22 05:09:55 +0000";
layers = (
{
layerId = m01;
shapes = (
{
closed = 1;
nodes = (
(128,480,ls),
(128,428,o),
(156,400,o),
(208,400,cs),
(1428,400,l),
(1428,80,ls),
(1428,28,o),
(1456,0,o),
(1508,0,cs),
(1540,0,ls),
(1592,0,o),
(1620,28,o),
(1620,80,cs),
(1620,400,l),
(1840,400,ls),
(1892,400,o),
(1920,428,o),
(1920,480,cs),
(1920,496,ls),
(1920,548,o),
(1892,576,o),
(1840,576,cs),
(1620,576,l),
(1620,1456,ls),
(1620,1508,o),
(1592,1536,o),
(1540,1536,cs),
(1482,1536,ls),
(1443,1536,o),
(1414,1528,o),
(1383,1505,cs),
(179,611,ls),
(144,585,o),
(128,557,o),
(128,514,cs)
);
},
{
closed = 1;
nodes = (
(1428,1317,l),
(1428,576,l),
(430,576,l)
);
}
);
width = 2048;
}
);
unicode = 52;
},
{
glyphname = five;
kernRight = O;
lastChange = "2024-12-22 05:12:37 +0000";
layers = (
{
layerId = m01;
shapes = (
{
closed = 1;
nodes = (
(1140,-32,ls),
(1668,-32,o),
(1920,94,o),
(1920,448,cs),
(1920,496,ls),
(1920,850,o),
(1668,976,o),
(1140,976,cs),
(877,976,ls),
(645,976,o),
(462,939,o),
(344,837,c),
(344,1360,l),
(1808,1360,ls),
(1860,1360,o),
(1888,1388,o),
(1888,1440,cs),
(1888,1456,ls),
(1888,1508,o),
(1860,1536,o),
(1808,1536,cs),
(232,1536,ls),
(180,1536,o),
(152,1508,o),
(152,1456,cs),
(152,752,ls),
(152,700,o),
(180,672,o),
(232,672,cs),
(299,672,ls),
(330,672,o),
(350,683,o),
(373,704,cs),
(459,780,o),
(620,800,o),
(898,800,cs),
(1119,800,ls),
(1596,800,o),
(1728,742,o),
(1728,492,cs),
(1728,453,ls),
(1728,203,o),
(1596,144,o),
(1119,144,cs),
(930,144,ls),
(497,144,o),
(349,193,o),
(325,426,cs),
(319,477,o),
(294,504,o),
(243,504,cs),
(211,504,ls),
(159,504,o),
(128,475,o),
(133,422,cs),
(166,77,o),
(418,-32,o),
(909,-32,cs)
);
}
);
width = 2048;
}
);
unicode = 53;
},
{
glyphname = six;
lastChange = "2024-12-22 05:17:16 +0000";
layers = (
{
layerId = m01;
shapes = (
{
closed = 1;
nodes = (
(1768,-32,o),
(1936,106,o),
(1936,416,cs),
(1936,448,ls),
(1936,758,o),
(1768,896,o),
(1400,896,cs),
(698,896,ls),
(574,896,o),
(434,868,o),
(340,745,c),
(340,967,ls),
(340,1334,o),
(472,1392,o),
(949,1392,cs),
(1143,1392,ls),
(1568,1392,o),
(1716,1343,o),
(1742,1128,cs),
(1748,1078,o),
(1775,1053,o),
(1825,1053,cs),
(1858,1053,ls),
(1911,1053,o),
(1940,1083,o),
(1935,1136,cs),
(1903,1459,o),
(1651,1568,o),
(1164,1568,cs),
(928,1568,ls),
(400,1568,o),
(148,1442,o),
(148,974,cs),
(148,416,ls),
(148,106,o),
(316,-32,o),
(684,-32,cs),
(1400,-32,ls)
);
},
{
closed = 1;
nodes = (
(698,144,ls),
(428,144,o),
(340,237,o),
(340,419,cs),
(340,445,ls),
(340,589,o),
(456,720,o),
(698,720,cs),
(1386,720,ls),
(1656,720,o),
(1744,627,o),
(1744,445,cs),
(1744,419,ls),
(1744,237,o),
(1656,144,o),
(1386,144,cs)
);
}
);
width = 2048;
}
);
unicode = 54;
},
{
glyphname = seven;
kernLeft = O;
kernRight = O;
lastChange = "2024-12-22 05:10:49 +0000";
layers = (
{
layerId = m01;
shapes = (
{
closed = 1;
nodes = (
(693,0,ls),
(723,0,o),
(745,9,o),
(767,31,cs),
(1889,1153,ls),
(1911,1175,o),
(1920,1197,o),
(1920,1227,cs),
(1920,1476,ls),
(1920,1515,o),
(1899,1536,o),
(1860,1536,cs),
(188,1536,ls),
(149,1536,o),
(128,1515,o),
(128,1476,cs),
(128,1420,ls),
(128,1381,o),
(149,1360,o),
(188,1360,cs),
(1728,1360,l),
(1728,1294,l),
(508,74,ls),
(470,36,o),
(485,0,o),
(538,0,cs)
);
}
);
width = 2048;
}
);
unicode = 55;
},
{
glyphname = eight;
kernLeft = O;
kernRight = O;
lastChange = "2024-12-22 05:10:55 +0000";
layers = (
{
anchors = (
{
name = bottom;
pos = (-262,0);
},
{
name = top;
pos = (-262,1536);
}
);
layerId = m01;
shapes = (
{
closed = 1;
nodes = (
(908,1568,ls),
(412,1568,o),
(160,1442,o),
(160,1148,cs),
(160,1100,ls),
(160,964,o),
(222,841,o),
(355,768,c),
(202,695,o),
(128,572,o),
(128,436,cs),
(128,388,ls),
(128,94,o),
(380,-32,o),
(908,-32,cs),
(1140,-32,ls),
(1668,-32,o),
(1920,94,o),
(1920,388,cs),
(1920,436,ls),
(1920,572,o),
(1846,695,o),
(1693,768,c),
(1826,841,o),
(1888,964,o),
(1888,1100,cs),
(1888,1148,ls),
(1888,1442,o),
(1636,1568,o),
(1140,1568,cs)
);
},
{
closed = 1;
nodes = (
(320,432,ls),
(320,622,o),
(452,680,o),
(929,680,cs),
(1119,680,ls),
(1596,680,o),
(1728,622,o),
(1728,432,cs),
(1728,393,ls),
(1728,203,o),
(1596,144,o),
(1119,144,cs),
(929,144,ls),
(452,144,o),
(320,203,o),
(320,393,cs)
);
},
{
closed = 1;
nodes = (
(352,1144,ls),
(352,1334,o),
(484,1392,o),
(929,1392,cs),
(1119,1392,ls),
(1564,1392,o),
(1696,1334,o),
(1696,1144,cs),
(1696,1105,ls),
(1696,915,o),
(1564,856,o),
(1119,856,cs),
(929,856,ls),
(484,856,o),
(352,915,o),
(352,1105,cs)
);
}
);
width = 2048;
}
);
unicode = 56;
},
{
glyphname = zerosuperior;
lastChange = "2024-12-19 02:20:07 +0000";
layers = (
{
layerId = m01;
shapes = (
{
closed = 1;
nodes = (
(0,1041,ls),
(0,695,o),
(213,556,o),
(488,556,cs),
(633,556,ls),
(908,556,o),
(1120,695,o),
(1120,1041,cs),
(1120,1071,ls),
(1120,1417,o),
(908,1556,o),
(633,1556,cs),
(488,1556,ls),
(213,1556,o),
(0,1417,o),
(0,1071,cs)
);
},
{
closed = 1;
nodes = (
(176,1316,o),
(313,1412,o),
(501,1412,cs),
(619,1412,ls),
(807,1412,o),
(944,1316,o),
(944,1069,cs),
(944,1044,ls),
(944,797,o),
(807,700,o),
(619,700,cs),
(501,700,ls),
(313,700,o),
(176,797,o),
(176,1044,cs),
(176,1069,ls)
);
}
);
width = 1120;
}
);
unicode = 8304;
},
{
glyphname = onesuperior;
lastChange = "2024-12-17 05:35:33 +0000";
layers = (
{
layerId = m01;
shapes = (
{
closed = 1;
nodes = (
(403,1536,ls),
(351,1536,o),
(341,1532,o),
(304,1495,cs),
(66,1257,ls),
(38,1229,o),
(36,1207,o),
(66,1177,cs),
(110,1133,ls),
(138,1105,o),
(162,1105,o),
(190,1133,cs),
(450,1392,l),
(502,1392,l),
(502,656,ls),
(502,604,o),
(530,576,o),
(582,576,cs),
(598,576,ls),
(650,576,o),
(678,604,o),
(678,656,cs),
(678,1456,ls),
(678,1508,o),
(650,1536,o),
(598,1536,cs)
);
}
);
width = 744;
}
);
unicode = 185;
},
{
glyphname = twosuperior;
lastChange = "2024-12-17 13:38:39 +0000";
layers = (
{
anchors = (
{
name = bottom;
pos = (633,576);
},
{
name = top;
pos = (633,1536);
}
);
layerId = m01;
shapes = (
{
closed = 1;
nodes = (
(1114,576,ls),
(1147,576,o),
(1164,594,o),
(1164,626,cs),
(1164,670,ls),
(1164,703,o),
(1147,720,o),
(1114,720,cs),
(220,720,l),
(220,779,ls),
(220,877,o),
(303,888,o),
(545,911,cs),
(673,923,ls),
(833,938,o),
(953,939,o),
(1033,977,cs),
(1121,1015,o),
(1164,1078,o),
(1164,1196,cs),
(1164,1286,ls),
(1164,1477,o),
(1007,1556,o),
(677,1556,cs),
(535,1556,ls),
(282,1556,o),
(68,1488,o),
(48,1272,cs),
(45,1239,o),
(64,1221,o),
(97,1221,cs),
(173,1221,ls),
(204,1221,o),
(220,1242,o),
(224,1270,cs),
(239,1385,o),
(331,1412,o),
(548,1412,cs),
(663,1412,ls),
(906,1412,o),
(988,1375,o),
(988,1283,cs),
(988,1199,ls),
(988,1100,o),
(905,1089,o),
(663,1066,cs),
(535,1054,ls),
(375,1039,o),
(255,1038,o),
(175,1001,cs),
(87,962,o),
(44,882,o),
(44,781,cs),
(44,626,ls),
(44,594,o),
(62,576,o),
(94,576,cs)
);
}
);
width = 1208;
}
);
unicode = 178;
},
{
glyphname = threesuperior;
lastChange = "2024-12-17 13:39:16 +0000";
layers = (
{
anchors = (
{
name = bottom;
pos = (-194,576);
},
{
name = top;
pos = (-194,1536);
}
);
layerId = m01;
shapes = (
{
closed = 1;
nodes = (
(662,556,ls),
(992,556,o),
(1149,635,o),
(1149,819,cs),
(1149,849,ls),
(1149,934,o),
(1103,1010,o),
(1008,1056,c),
(1083,1102,o),
(1129,1179,o),
(1129,1264,cs),
(1129,1294,ls),
(1129,1477,o),
(972,1556,o),
(662,1556,cs),
(518,1556,ls),
(211,1556,o),
(53,1488,o),
(33,1272,cs),
(29,1239,o),
(49,1221,o),
(81,1221,cs),
(157,1221,ls),
(189,1221,o),
(205,1238,o),
(209,1270,cs),
(224,1382,o),
(316,1412,o),
(531,1412,cs),
(649,1412,ls),
(871,1412,o),
(953,1376,o),
(953,1291,cs),
(953,1267,ls),
(953,1165,o),
(871,1128,o),
(649,1128,cs),
(550,1128,ls),
(518,1128,o),
(500,1111,o),
(500,1078,cs),
(500,1034,ls),
(500,1002,o),
(518,984,o),
(550,984,cs),
(649,984,ls),
(891,984,o),
(973,948,o),
(973,846,cs),
(973,822,ls),
(973,737,o),
(891,700,o),
(649,700,cs),
(531,700,ls),
(316,700,o),
(224,731,o),
(209,842,cs),
(205,874,o),
(189,891,o),
(157,891,cs),
(81,891,ls),
(49,891,o),
(29,873,o),
(33,840,cs),
(53,624,o),
(211,556,o),
(518,556,cs)
);
}
);
width = 1181;
}
);
unicode = 179;
},
{
glyphname = foursuperior;
lastChange = "2024-12-17 05:38:06 +0000";
layers = (
{
layerId = m01;
shapes = (
{
closed = 1;
nodes = (
(0,842,ls),
(0,810,o),
(18,792,o),
(50,792,cs),
(813,792,l),
(813,626,ls),
(813,594,o),
(830,576,o),
(863,576,cs),
(939,576,ls),
(971,576,o),
(989,594,o),
(989,626,cs),
(989,792,l),
(1070,792,ls),
(1103,792,o),
(1120,810,o),
(1120,842,cs),
(1120,886,ls),
(1120,919,o),
(1103,936,o),
(1070,936,cs),
(989,936,l),
(989,1486,ls),
(989,1519,o),
(971,1536,o),
(939,1536,cs),
(847,1536,ls),
(822,1536,o),
(804,1531,o),
(785,1517,cs),
(32,958,ls),
(10,942,o),
(0,924,o),
(0,897,cs)
);
},
{
closed = 1;
nodes = (
(813,1365,l),
(813,936,l),
(234,936,l)
);
}
);
width = 1120;
}
);
unicode = 8308;
},
{
glyphname = fivesuperior;
lastChange = "2024-12-17 13:38:56 +0000";
layers = (
{
layerId = m01;
shapes = (
{
closed = 1;
nodes = (
(673,556,ls),
(1003,556,o),
(1161,635,o),
(1161,856,cs),
(1161,886,ls),
(1161,1124,o),
(1003,1203,o),
(673,1203,cs),
(509,1203,ls),
(420,1203,o),
(305,1180,o),
(232,1116,c),
(232,1392,l),
(1091,1392,ls),
(1123,1392,o),
(1141,1410,o),
(1141,1442,cs),
(1141,1486,ls),
(1141,1519,o),
(1123,1536,o),
(1091,1536,cs),
(106,1536,ls),
(73,1536,o),
(56,1519,o),
(56,1486,cs),
(56,1029,ls),
(56,997,o),
(73,979,o),
(106,979,cs),
(203,979,ls),
(223,979,o),
(235,986,o),
(250,999,cs),
(303,1047,o),
(404,1059,o),
(522,1059,cs),
(660,1059,ls),
(902,1059,o),
(985,1023,o),
(985,884,cs),
(985,859,ls),
(985,737,o),
(902,700,o),
(660,700,cs),
(542,700,ls),
(327,700,o),
(235,731,o),
(220,842,cs),
(216,874,o),
(200,891,o),
(168,891,cs),
(92,891,ls),
(60,891,o),
(41,873,o),
(44,840,cs),
(64,624,o),
(222,556,o),
(529,556,cs)
);
}
);
width = 1205;
}
);
unicode = 8309;
},
{
glyphname = sixsuperior;
lastChange = "2024-12-17 13:39:02 +0000";
layers = (
{
layerId = m01;
shapes = (
{
closed = 1;
nodes = (
(1057,556,o),
(1162,642,o),
(1162,836,cs),
(1162,856,ls),
(1162,1067,o),
(1001,1153,o),
(771,1153,cs),
(444,1153,ls),
(366,1153,o),
(279,1131,o),
(220,1049,c),
(220,1180,ls),
(220,1376,o),
(303,1412,o),
(545,1412,cs),
(666,1412,ls),
(876,1412,o),
(968,1381,o),
(984,1281,cs),
(989,1250,o),
(1005,1234,o),
(1036,1234,cs),
(1113,1234,ls),
(1146,1234,o),
(1164,1253,o),
(1161,1286,cs),
(1141,1488,o),
(983,1556,o),
(679,1556,cs),
(532,1556,ls),
(202,1556,o),
(44,1477,o),
(44,1185,cs),
(44,836,ls),
(44,642,o),
(149,556,o),
(379,556,cs),
(827,556,ls)
);
},
{
closed = 1;
nodes = (
(388,700,ls),
(275,700,o),
(220,758,o),
(220,838,cs),
(220,854,ls),
(220,947,o),
(293,1009,o),
(388,1009,cs),
(818,1009,ls),
(931,1009,o),
(986,951,o),
(986,854,cs),
(986,838,ls),
(986,758,o),
(931,700,o),
(818,700,cs)
);
}
);
width = 1206;
}
);
unicode = 8310;
},
{
glyphname = sevensuperior;
lastChange = "2024-12-17 13:39:07 +0000";
layers = (
{
layerId = m01;
shapes = (
{
closed = 1;
nodes = (
(385,576,ls),
(404,576,o),
(418,582,o),
(431,595,cs),
(1133,1297,ls),
(1146,1310,o),
(1152,1324,o),
(1152,1343,cs),
(1152,1499,ls),
(1152,1523,o),
(1139,1536,o),
(1115,1536,cs),
(70,1536,ls),
(45,1536,o),
(32,1523,o),
(32,1499,cs),
(32,1430,ls),
(32,1405,o),
(45,1392,o),
(70,1392,cs),
(976,1392,l),
(976,1385,l),
(214,622,ls),
(190,599,o),
(199,576,o),
(232,576,cs)
);
}
);
width = 1184;
}
);
unicode = 8311;
},
{
glyphname = eightsuperior;
lastChange = "2024-12-17 13:39:12 +0000";
layers = (
{
anchors = (
{
name = bottom;
pos = (-212,576);
},
{
name = top;
pos = (-212,1536);
}
);
layerId = m01;
shapes = (
{
closed = 1;
nodes = (
(520,1556,ls),
(210,1556,o),
(52,1477,o),
(52,1294,cs),
(52,1264,ls),
(52,1179,o),
(91,1102,o),
(174,1056,c),
(78,1010,o),
(32,934,o),
(32,849,cs),
(32,819,ls),
(32,635,o),
(190,556,o),
(520,556,cs),
(665,556,ls),
(995,556,o),
(1152,635,o),
(1152,819,cs),
(1152,849,ls),
(1152,934,o),
(1106,1010,o),
(1010,1056,c),
(1093,1102,o),
(1132,1179,o),
(1132,1264,cs),
(1132,1294,ls),
(1132,1477,o),
(975,1556,o),
(665,1556,cs)
);
},
{
closed = 1;
nodes = (
(208,846,ls),
(208,948,o),
(291,984,o),
(533,984,cs),
(651,984,ls),
(894,984,o),
(976,948,o),
(976,846,cs),
(976,822,ls),
(976,737,o),
(894,700,o),
(651,700,cs),
(533,700,ls),
(291,700,o),
(208,737,o),
(208,822,cs)
);
},
{
closed = 1;
nodes = (
(228,1291,ls),
(228,1376,o),
(311,1412,o),
(533,1412,cs),
(651,1412,ls),
(874,1412,o),
(956,1376,o),
(956,1291,cs),
(956,1267,ls),
(956,1165,o),
(874,1128,o),
(651,1128,cs),
(533,1128,ls),
(311,1128,o),
(228,1165,o),
(228,1267,cs)
);
}
);
width = 1184;
}
);
unicode = 8312;
},
{
glyphname = period;
lastChange = "2024-12-22 05:24:57 +0000";
layers = (
{
layerId = m01;
shapes = (
{
closed = 1;
nodes = (
(304,0,ls),
(356,0,o),
(384,28,o),
(384,80,cs),
(384,176,ls),
(384,228,o),
(356,256,o),
(304,256,cs),
(208,256,ls),
(156,256,o),
(128,228,o),
(128,176,cs),
(128,80,ls),
(128,28,o),
(156,0,o),
(208,0,cs)
);
}
);
width = 512;
}
);
unicode = 46;
},
{
glyphname = comma;
lastChange = "2024-12-22 05:25:01 +0000";
layers = (
{
layerId = m01;
shapes = (
{
closed = 1;
nodes = (
(256,-256,o),
(336,-166,o),
(336,0,cs),
(336,186,ls),
(336,228,o),
(308,256,o),
(266,256,cs),
(150,256,ls),
(108,256,o),
(80,228,o),
(80,186,cs),
(80,70,ls),
(80,28,o),
(108,0,o),
(192,0,c),
(192,-72,o),
(175,-112,o),
(139,-112,cs),
(97,-112,o),
(64,-133,o),
(64,-175,cs),
(64,-194,ls),
(64,-236,o),
(97,-256,o),
(163,-256,cs)
);
}
);
width = 464;
}
);
unicode = 44;
},
{
glyphname = colon;
lastChange = "2024-12-22 05:25:08 +0000";
layers = (
{
layerId = m01;
shapes = (
{
closed = 1;
nodes = (
(304,768,ls),
(356,768,o),
(384,796,o),
(384,848,cs),
(384,944,ls),
(384,996,o),
(356,1024,o),
(304,1024,cs),
(208,1024,ls),
(156,1024,o),
(128,996,o),
(128,944,cs),
(128,848,ls),
(128,796,o),
(156,768,o),
(208,768,cs)
);
},
{
closed = 1;
nodes = (
(304,0,ls),
(356,0,o),
(384,28,o),
(384,80,cs),
(384,176,ls),
(384,228,o),
(356,256,o),
(304,256,cs),
(208,256,ls),
(156,256,o),
(128,228,o),
(128,176,cs),
(128,80,ls),
(128,28,o),
(156,0,o),
(208,0,cs)
);
}
);
width = 512;
}
);
unicode = 58;
},
{
glyphname = semicolon;
lastChange = "2024-12-22 05:25:11 +0000";
layers = (
{
layerId = m01;
shapes = (
{
ref = comma;
},
{
closed = 1;
nodes = (
(324,768,ls),
(376,768,o),
(404,796,o),
(404,848,cs),
(404,944,ls),
(404,996,o),
(376,1024,o),
(324,1024,cs),
(228,1024,ls),
(176,1024,o),
(148,996,o),
(148,944,cs),
(148,848,ls),
(148,796,o),
(176,768,o),
(228,768,cs)
);
}
);
width = 536;
}
);
unicode = 59;
},
{
glyphname = bullet;
lastChange = "2024-12-22 05:27:51 +0000";
layers = (
{
layerId = m01;
shapes = (
{
closed = 1;
nodes = (
(432,320,ls),
(484,320,o),
(512,348,o),
(512,400,cs),
(512,624,ls),
(512,676,o),
(484,704,o),
(432,704,cs),
(208,704,ls),
(156,704,o),
(128,676,o),
(128,624,cs),
(128,400,ls),
(128,348,o),
(156,320,o),
(208,320,cs)
);
}
);
width = 640;
}
);
unicode = 8226;
},
{
glyphname = asterisk;
lastChange = "2024-12-22 05:27:57 +0000";
layers = (
{
layerId = m01;
shapes = (
{
closed = 1;
nodes = (
(369,1024,ls),
(408,1024,o),
(429,1045,o),
(429,1084,cs),
(429,1166,l),
(500,1125,ls),
(534,1105,o),
(562,1113,o),
(582,1147,cs),
(588,1157,ls),
(607,1191,o),
(600,1220,o),
(566,1239,cs),
(495,1280,l),
(566,1321,ls),
(600,1340,o),
(607,1369,o),
(588,1403,cs),
(582,1413,ls),
(562,1447,o),
(534,1455,o),
(500,1435,cs),
(429,1394,l),
(429,1476,ls),
(429,1515,o),
(408,1536,o),
(369,1536,cs),
(357,1536,ls),
(318,1536,o),
(297,1515,o),
(297,1476,cs),
(297,1394,l),
(226,1435,ls),
(192,1455,o),
(164,1447,o),
(144,1413,cs),
(138,1403,ls),
(119,1369,o),
(126,1340,o),
(160,1321,cs),
(231,1280,l),
(160,1239,ls),
(126,1220,o),
(119,1191,o),
(138,1157,cs),
(144,1147,ls),
(164,1113,o),
(192,1105,o),
(226,1125,cs),
(297,1166,l),
(297,1084,ls),
(297,1045,o),
(318,1024,o),
(357,1024,cs)
);
}
);
width = 726;
}
);
unicode = 42;
},
{
glyphname = numbersign;
lastChange = "2024-12-22 05:28:10 +0000";
layers = (
{
layerId = m01;
shapes = (
{
closed = 1;
nodes = (
(1050,0,ls),
(1098,0,o),
(1128,24,o),
(1138,71,cs),
(1388,1272,ls),
(1399,1327,o),
(1373,1360,o),
(1317,1360,cs),
(1303,1360,ls),
(1255,1360,o),
(1225,1336,o),
(1215,1289,cs),
(965,88,ls),
(954,33,o),
(980,0,o),
(1035,0,cs)
);
},
{
closed = 1;
nodes = (
(457,0,ls),
(505,0,o),
(535,24,o),
(545,71,cs),
(795,1272,ls),
(806,1327,o),
(780,1360,o),
(724,1360,cs),
(710,1360,ls),
(662,1360,o),
(632,1336,o),
(622,1289,cs),
(372,88,ls),
(361,33,o),
(387,0,o),
(442,0,cs)
);
},
{
closed = 1;
nodes = (
(1424,336,ls),
(1476,336,o),
(1509,365,o),
(1519,416,cs),
(1522,432,ls),
(1532,483,o),
(1512,512,o),
(1460,512,cs),
(231,512,ls),
(179,512,o),
(143,483,o),
(133,432,cs),
(130,416,ls),
(120,365,o),
(143,336,o),
(195,336,cs)
);
},
{
closed = 1;
nodes = (
(1529,848,ls),
(1581,848,o),
(1614,877,o),
(1624,928,cs),
(1627,944,ls),
(1637,995,o),
(1617,1024,o),
(1565,1024,cs),
(336,1024,ls),
(284,1024,o),
(251,995,o),
(241,944,cs),
(238,928,ls),
(228,877,o),
(248,848,o),
(300,848,cs)
);
}
);
width = 1661;
}
);
unicode = 35;
},
{
glyphname = slash;
lastChange = "2024-12-22 05:28:20 +0000";
layers = (
{
layerId = m01;
shapes = (
{
closed = 1;
nodes = (
(159,0,ls),
(204,0,o),
(235,20,o),
(252,62,cs),
(827,1443,ls),
(850,1498,o),
(825,1536,o),
(765,1536,cs),
(741,1536,ls),
(696,1536,o),
(665,1516,o),
(648,1474,cs),
(73,93,ls),
(50,38,o),
(73,0,o),
(130,0,cs)
);
}
);
width = 899;
}
);
unicode = 47;
},
{
glyphname = hyphen;
lastChange = "2024-12-22 05:28:35 +0000";
layers = (
{
layerId = m01;
shapes = (
{
closed = 1;
nodes = (
(128,484,ls),
(128,445,o),
(149,424,o),
(188,424,cs),
(900,424,ls),
(939,424,o),
(960,445,o),
(960,484,cs),
(960,540,ls),
(960,579,o),
(939,600,o),
(900,600,cs),
(188,600,ls),
(149,600,o),
(128,579,o),
(128,540,cs)
);
}
);
width = 1088;
}
);
unicode = 45;
},
{
glyphname = endash;
lastChange = "2024-12-22 05:28:42 +0000";
layers = (
{
layerId = m01;
shapes = (
{
closed = 1;
nodes = (
(128,484,ls),
(128,445,o),
(149,424,o),
(188,424,cs),
(1220,424,ls),
(1259,424,o),
(1280,445,o),
(1280,484,cs),
(1280,540,ls),
(1280,579,o),
(1259,600,o),
(1220,600,cs),
(188,600,ls),
(149,600,o),
(128,579,o),
(128,540,cs)
);
}
);
width = 1408;
}
);
unicode = 8211;
},
{
glyphname = emdash;
lastChange = "2024-12-17 04:49:24 +0000";
layers = (
{
layerId = m01;
shapes = (
{
closed = 1;
nodes = (
(0,484,ls),
(0,445,o),
(21,424,o),
(60,424,cs),
(2212,424,ls),
(2251,424,o),
(2272,445,o),
(2272,484,cs),
(2272,540,ls),
(2272,579,o),
(2251,600,o),
(2212,600,cs),
(60,600,ls),
(21,600,o),
(0,579,o),
(0,540,cs)
);
}
);
width = 2272;
}
);
unicode = 8212;
},
{
glyphname = underscore;
lastChange = "2024-12-17 04:49:36 +0000";
layers = (
{
layerId = m01;
shapes = (
{
closed = 1;
nodes = (
(0,-136,ls),
(0,-175,o),
(21,-196,o),
(60,-196,cs),
(1092,-196,ls),
(1131,-196,o),
(1152,-175,o),
(1152,-136,cs),
(1152,-124,ls),
(1152,-85,o),
(1131,-64,o),
(1092,-64,cs),
(60,-64,ls),
(21,-64,o),
(0,-85,o),
(0,-124,cs)
);
}
);
width = 1152;
}
);
unicode = 95;
},
{
glyphname = parenleft;
lastChange = "2024-12-22 05:28:53 +0000";
layers = (
{
layerId = m01;
shapes = (
{
closed = 1;
nodes = (
(558,-96,ls),
(605,-96,o),
(640,-61,o),
(640,-14,cs),
(640,-2,ls),
(640,45,o),
(605,80,o),
(558,80,cs),
(529,80,ls),
(452,80,o),
(320,139,o),
(320,273,cs),
(320,1264,ls),
(320,1398,o),
(452,1456,o),
(529,1456,cs),
(558,1456,ls),
(605,1456,o),
(640,1491,o),
(640,1538,cs),
(640,1550,ls),
(640,1597,o),
(605,1632,o),
(558,1632,cs),
(508,1632,ls),
(380,1632,o),
(128,1505,o),
(128,1236,cs),
(128,299,ls),
(128,29,o),
(380,-96,o),
(508,-96,cs)
);
}
);
width = 768;
}
);
unicode = 40;
},
{
glyphname = braceleft;
lastChange = "2024-12-22 05:29:12 +0000";
layers = (
{
layerId = m01;
shapes = (
{
closed = 1;
nodes = (
(654,-96,ls),
(701,-96,o),
(736,-61,o),
(736,-14,cs),
(736,-2,ls),
(736,45,o),
(701,80,o),
(654,80,cs),
(625,80,ls),
(548,80,o),
(416,139,o),
(416,273,cs),
(416,460,ls),
(416,601,o),
(380,703,o),
(328,768,c),
(380,833,o),
(416,935,o),
(416,1076,cs),
(416,1263,ls),
(416,1397,o),
(548,1456,o),
(625,1456,cs),
(654,1456,ls),
(701,1456,o),
(736,1491,o),
(736,1538,cs),
(736,1550,ls),
(736,1597,o),
(701,1632,o),
(654,1632,cs),
(604,1632,ls),
(476,1632,o),
(224,1505,o),
(224,1236,cs),
(224,1049,ls),
(224,915,o),
(204,856,o),
(143,856,cs),
(114,856,ls),
(67,856,o),
(32,821,o),
(32,774,cs),
(32,762,ls),
(32,715,o),
(67,680,o),
(114,680,cs),
(143,680,ls),
(204,680,o),
(224,621,o),
(224,487,cs),
(224,300,ls),
(224,31,o),
(476,-96,o),
(604,-96,cs)
);
},
{
closed = 1;
nodes = (
);
}
);
width = 864;
}
);
unicode = 123;
},
{
glyphname = bracketleft;
lastChange = "2024-12-22 05:29:17 +0000";
layers = (
{
layerId = m01;
shapes = (
{
closed = 1;
nodes = (
(560,-96,ls),
(612,-96,o),
(640,-68,o),
(640,-16,cs),
(640,0,ls),
(640,52,o),
(612,80,o),
(560,80,cs),
(320,80,l),
(320,1456,l),
(560,1456,ls),
(612,1456,o),
(640,1484,o),
(640,1536,cs),
(640,1552,ls),
(640,1604,o),
(612,1632,o),
(560,1632,cs),
(208,1632,ls),
(156,1632,o),
(128,1604,o),
(128,1552,cs),
(128,-16,ls),
(128,-68,o),
(156,-96,o),
(208,-96,cs)
);
}
);
width = 768;
}
);
unicode = 91;
},
{
glyphname = guilsinglleft;
lastChange = "2024-12-22 05:30:49 +0000";
layers = (
{
layerId = m01;
shapes = (
{
closed = 1;
nodes = (
(678,928,o),
(681,964,o),
(650,995,cs),
(643,1002,ls),
(613,1032,o),
(578,1032,o),
(540,994,cs),
(235,689,ls),
(206,660,o),
(192,632,o),
(192,591,cs),
(192,562,ls),
(192,521,o),
(206,493,o),
(235,464,cs),
(540,159,ls),
(578,121,o),
(613,120,o),
(643,150,cs),
(650,157,ls),
(680,187,o),
(678,225,o),
(642,261,cs),
(336,567,l),
(336,586,l),
(642,892,ls)
);
}
);
width = 863;
}
);
unicode = 8249;
},
{
glyphname = quotesingle;
lastChange = "2024-12-22 05:31:02 +0000";
layers = (
{
layerId = m01;
shapes = (
{
closed = 1;
nodes = (
(218,1024,ls),
(257,1024,o),
(282,1040,o),
(284,1082,cs),
(300,1474,ls),
(302,1516,o),
(274,1536,o),
(232,1536,cs),
(196,1536,ls),
(154,1536,o),
(126,1516,o),
(128,1474,cs),
(144,1082,ls),
(146,1040,o),
(171,1024,o),
(210,1024,cs)
);
}
);
width = 428;
}
);
unicode = 39;
},
{
glyphname = at;
lastChange = "2024-12-21 01:59:42 +0000";
layers = (
{
layerId = m01;
shapes = (
{
closed = 1;
nodes = (
(88,744,ls),
(88,190,o),
(428,-32,o),
(868,-32,cs),
(1100,-32,ls),
(1257,-32,o),
(1402,-3,o),
(1523,58,cs),
(1573,84,o),
(1576,130,o),
(1536,170,cs),
(1521,185,ls),
(1487,219,o),
(1454,221,o),
(1411,201,cs),
(1321,162,o),
(1209,144,o),
(1079,144,cs),
(889,144,ls),
(500,144,o),
(280,299,o),
(280,749,cs),
(280,788,ls),
(280,1238,o),
(500,1392,o),
(889,1392,cs),
(1079,1392,ls),
(1468,1392,o),
(1688,1238,o),
(1688,788,cs),
(1688,749,ls),
(1688,626,o),
(1668,517,o),
(1511,492,c),
(1511,1153,ls),
(1511,1201,o),
(1486,1227,o),
(1438,1227,cs),
(1409,1227,ls),
(1361,1227,o),
(1335,1201,o),
(1335,1153,cs),
(1335,1080,l),
(1254,1200,o),
(1140,1248,o),
(1040,1248,cs),
(927,1248,ls),
(706,1248,o),
(456,1172,o),
(456,783,cs),
(456,753,ls),
(456,377,o),
(706,288,o),
(927,288,cs),
(1040,288,ls),
(1140,288,o),
(1254,337,o),
(1335,457,c),
(1335,384,ls),
(1335,336,o),
(1361,310,o),
(1409,310,cs),
(1438,310,l),
(1442,310,ls),
(1776,315,o),
(1880,546,o),
(1880,744,cs),
(1880,792,ls),
(1880,1346,o),
(1540,1568,o),
(1100,1568,cs),
(868,1568,ls),
(428,1568,o),
(88,1346,o),
(88,792,cs)
);
},
{
closed = 1;
nodes = (
(632,780,ls),
(632,1039,o),
(753,1104,o),
(934,1104,cs),
(1033,1104,ls),
(1214,1104,o),
(1325,976,o),
(1335,798,c),
(1335,738,l),
(1325,560,o),
(1214,432,o),
(1033,432,cs),
(934,432,ls),
(753,432,o),
(632,500,o),
(632,756,cs)
);
}
);
width = 1968;
}
);
unicode = 64;
},
{
glyphname = ampersand;
lastChange = "2024-12-21 03:26:58 +0000";
layers = (
{
layerId = m01;
shapes = (
{
closed = 1;
nodes = (
(1100,-35,ls),
(1421,-35,o),
(1640,11,o),
(1762,114,c),
(1921,35,ls),
(1967,12,o),
(2006,24,o),
(2029,71,cs),
(2036,86,ls),
(2059,132,o),
(2045,170,o),
(1999,193,cs),
(1862,261,l),
(1874,298,o),
(1880,340,o),
(1880,385,cs),
(1880,528,ls),
(1880,580,o),
(1852,608,o),
(1800,608,cs),
(1768,608,ls),
(1716,608,o),
(1688,580,o),
(1688,528,cs),
(1688,390,ls),
(1688,375,o),
(1687,361,o),
(1686,348,c),
(572,897,l),
(478,935,o),
(440,1000,o),
(440,1102,cs),
(440,1141,ls),
(440,1331,o),
(572,1389,o),
(949,1389,cs),
(1019,1389,ls),
(1396,1389,o),
(1528,1331,o),
(1528,1141,cs),
(1528,1072,ls),
(1528,1020,o),
(1556,992,o),
(1608,992,cs),
(1640,992,ls),
(1692,992,o),
(1720,1020,o),
(1720,1072,cs),
(1720,1145,ls),
(1720,1439,o),
(1468,1565,o),
(1040,1565,cs),
(928,1565,ls),
(500,1565,o),
(248,1439,o),
(248,1145,cs),
(248,1097,ls),
(248,965,o),
(299,867,o),
(393,799,c),
(188,736,o),
(88,618,o),
(88,433,cs),
(88,385,ls),
(88,91,o),
(340,-35,o),
(868,-35,cs)
);
},
{
closed = 1;
nodes = (
(412,141,o),
(280,200,o),
(280,390,cs),
(280,429,ls),
(280,580,o),
(363,647,o),
(636,669,c),
(1581,203,l),
(1491,158,o),
(1335,141,o),
(1079,141,cs),
(889,141,ls)
);
}
);
width = 2113;
}
);
unicode = 38;
},
{
glyphname = paragraph;
lastChange = "2024-12-22 05:33:11 +0000";
layers = (
{
anchors = (
{
name = bottom;
pos = (268,0);
},
{
name = bottomleft;
pos = (1384,-96);
},
{
name = center;
pos = (1560,768);
},
{
name = top;
pos = (268,1536);
}
);
layerId = m01;
shapes = (
{
closed = 1;
nodes = (
(1060,0,o),
(1088,28,o),
(1088,80,cs),
(1088,1360,l),
(1328,1360,l),
(1328,80,ls),
(1328,28,o),
(1356,0,o),
(1408,0,cs),
(1440,0,ls),
(1492,0,o),
(1520,28,o),
(1520,80,cs),
(1520,1456,ls),
(1520,1508,o),
(1492,1536,o),
(1440,1536,cs),
(616,1536,ls),
(264,1536,o),
(96,1452,o),
(96,1072,cs),
(96,1040,ls),
(96,660,o),
(264,576,o),
(616,576,cs),
(896,576,l),
(896,80,ls),
(896,28,o),
(924,0,o),
(976,0,cs),
(1008,0,ls)
);
},
{
closed = 1;
nodes = (
(630,752,ls),
(376,752,o),
(288,791,o),
(288,1043,cs),
(288,1069,ls),
(288,1331,o),
(376,1360,o),
(630,1360,cs),
(896,1360,l),
(896,752,l)
);
}
);
width = 1648;
}
);
unicode = 182;
},
{
glyphname = section;
lastChange = "2024-12-14 22:10:59 +0000";
layers = (
{
anchors = (
{
name = bottom;
pos = (706,-24);
},
{
name = top;
pos = (706,1024);
}
);
layerId = m01;
shapes = (
{
closed = 1;
nodes = (
(814,0,ls),
(1166,0,o),
(1334,84,o),
(1334,288,cs),
(1334,320,ls),
(1334,422,o),
(1294,490,o),
(1212,535,c),
(1294,581,o),
(1334,652,o),
(1334,752,cs),
(1334,767,ls),
(1335,775,o),
(1336,785,o),
(1334,795,cs),
(1334,796,ls),
(1331,894,o),
(1289,960,o),
(1205,1002,cs),
(1198,1005,l),
(1115,1053,o),
(997,1072,o),
(844,1072,cs),
(612,1073,ls),
(342,1076,o),
(254,1109,o),
(254,1219,cs),
(254,1245,ls),
(254,1353,o),
(342,1392,o),
(612,1392,cs),
(830,1392,ls),
(1033,1392,o),
(1131,1367,o),
(1157,1252,cs),
(1168,1202,o),
(1190,1176,o),
(1240,1176,cs),
(1257,1176,ls),
(1307,1176,o),
(1342,1206,o),
(1334,1259,cs),
(1302,1469,o),
(1134,1536,o),
(844,1536,cs),
(598,1536,ls),
(246,1536,o),
(78,1452,o),
(78,1248,cs),
(78,1216,ls),
(78,1114,o),
(118,1046,o),
(200,1001,c),
(118,955,o),
(78,884,o),
(78,784,cs),
(78,769,ls),
(77,761,o),
(76,751,o),
(78,741,cs),
(78,740,ls),
(81,642,o),
(123,576,o),
(207,534,cs),
(214,531,l),
(297,483,o),
(415,464,o),
(568,464,cs),
(800,463,ls),
(1070,460,o),
(1158,427,o),
(1158,317,cs),
(1158,291,ls),
(1158,183,o),
(1070,144,o),
(800,144,cs),
(582,144,ls),
(379,144,o),
(281,169,o),
(255,284,cs),
(244,334,o),
(222,360,o),
(172,360,cs),
(155,360,ls),
(105,360,o),
(70,330,o),
(78,277,cs),
(110,67,o),
(278,0,o),
(568,0,cs)
);
},
{
closed = 1;
nodes = (
(612,609,ls),
(494,610,o),
(410,617,o),
(354,634,c),
(300,655,o),
(268,690,o),
(255,748,cs),
(254,752,l),
(254,781,ls),
(254,889,o),
(342,928,o),
(612,928,cs),
(800,927,ls),
(918,926,o),
(1002,919,o),
(1058,902,c),
(1112,881,o),
(1144,846,o),
(1157,788,cs),
(1158,784,l),
(1158,755,ls),
(1158,647,o),
(1070,608,o),
(800,608,cs)
);
}
);
width = 1412;
}
);
unicode = 167;
},
{
glyphname = copyright;
lastChange = "2024-12-21 02:03:11 +0000";
layers = (
{
layerId = m01;
shapes = (
{
ref = zero;
},
{
closed = 1;
nodes = (
(1094,284,ls),
(1312,284,o),
(1480,351,o),
(1512,561,cs),
(1520,614,o),
(1488,644,o),
(1435,644,cs),
(1418,644,ls),
(1368,644,o),
(1346,618,o),
(1335,568,cs),
(1309,453,o),
(1211,428,o),
(1080,428,cs),
(892,428,ls),
(718,428,o),
(630,467,o),
(630,755,cs),
(630,781,ls),
(630,1073,o),
(718,1112,o),
(892,1112,cs),
(1080,1112,ls),
(1211,1112,o),
(1309,1087,o),
(1335,972,cs),
(1346,922,o),
(1368,896,o),
(1418,896,cs),
(1435,896,ls),
(1488,896,o),
(1520,926,o),
(1512,979,cs),
(1480,1189,o),
(1312,1256,o),
(1094,1256,cs),
(878,1256,ls),
(622,1256,o),
(454,1172,o),
(454,784,cs),
(454,752,ls),
(454,368,o),
(622,284,o),
(878,284,cs)
);
}
);
width = 1968;
}
);
unicode = 169;
},
{
glyphname = registered;
lastChange = "2024-12-22 05:34:55 +0000";
layers = (
{
layerId = m01;
shapes = (
{
ref = zero;
},
{
closed = 1;
nodes = (
(695,261,ls),
(737,261,o),
(760,284,o),
(760,326,cs),
(760,611,l),
(984,611,l),
(1307,301,ls),
(1332,277,o),
(1352,261,o),
(1386,261,cs),
(1449,261,ls),
(1497,261,o),
(1517,303,o),
(1477,341,cs),
(1183,615,l),
(1428,631,o),
(1511,718,o),
(1511,931,cs),
(1511,957,ls),
(1511,1200,o),
(1373,1277,o),
(1061,1277,cs),
(649,1277,ls),
(607,1277,o),
(584,1254,o),
(584,1211,cs),
(584,326,ls),
(584,284,o),
(607,261,o),
(649,261,cs)
);
},
{
closed = 1;
nodes = (
(760,1133,l),
(1050,1133,ls),
(1263,1133,o),
(1335,1101,o),
(1335,955,cs),
(1335,933,ls),
(1335,787,o),
(1263,755,o),
(1050,755,cs),
(760,755,l)
);
}
);
width = 1968;
}
);
unicode = 174;
},
{
glyphname = trademark;
lastChange = "2024-12-21 03:39:08 +0000";
layers = (
{
layerId = m01;
shapes = (
{
closed = 1;
nodes = (
(88,1440,ls),
(88,1388,o),
(116,1360,o),
(168,1360,cs),
(532,1360,l),
(532,656,ls),
(532,604,o),
(560,576,o),
(612,576,cs),
(644,576,ls),
(696,576,o),
(724,604,o),
(724,656,cs),
(724,1360,l),
(1088,1360,ls),
(1140,1360,o),
(1168,1388,o),
(1168,1440,cs),
(1168,1456,ls),
(1168,1508,o),
(1140,1536,o),
(1088,1536,cs),
(168,1536,ls),
(116,1536,o),
(88,1508,o),
(88,1456,cs)
);
},
{
closed = 1;
nodes = (
(1344,656,ls),
(1344,604,o),
(1372,576,o),
(1424,576,cs),
(1456,576,ls),
(1508,576,o),
(1536,604,o),
(1536,656,cs),
(1536,1360,l),
(1548,1360,l),
(1913,726,ls),
(1935,687,o),
(1966,672,o),
(2009,672,cs),
(2139,672,ls),
(2182,672,o),
(2213,687,o),
(2235,726,cs),
(2600,1360,l),
(2612,1360,l),
(2612,656,ls),
(2612,604,o),
(2640,576,o),
(2692,576,cs),
(2724,576,ls),
(2776,576,o),
(2804,604,o),
(2804,656,cs),
(2804,1456,ls),
(2804,1508,o),
(2776,1536,o),
(2724,1536,cs),
(2547,1536,ls),
(2504,1536,o),
(2473,1521,o),
(2451,1482,cs),
(2074,828,l),
(1697,1482,ls),
(1675,1521,o),
(1644,1536,o),
(1601,1536,cs),
(1424,1536,ls),
(1372,1536,o),
(1344,1508,o),
(1344,1456,cs)
);
}
);
width = 2900;
}
);
unicode = 8482;
},
{
glyphname = brokenbar;
lastChange = "2024-12-21 03:29:46 +0000";
layers = (
{
layerId = m01;
shapes = (
{
closed = 1;
nodes = (
(292,0,ls),
(331,0,o),
(352,21,o),
(352,60,cs),
(352,612,ls),
(352,651,o),
(331,672,o),
(292,672,cs),
(236,672,ls),
(197,672,o),
(176,651,o),
(176,612,cs),
(176,60,ls),
(176,21,o),
(197,0,o),
(236,0,cs)
);
},
{
closed = 1;
nodes = (
(292,864,ls),
(331,864,o),
(352,885,o),
(352,924,cs),
(352,1476,ls),
(352,1515,o),
(331,1536,o),
(292,1536,cs),
(236,1536,ls),
(197,1536,o),
(176,1515,o),
(176,1476,cs),
(176,924,ls),
(176,885,o),
(197,864,o),
(236,864,cs)
);
}
);
width = 528;
}
);
unicode = 166;
},
{
glyphname = dagger;
lastChange = "2024-12-21 03:33:22 +0000";
layers = (
{
layerId = m01;
shapes = (
{
closed = 1;
nodes = (
(410,512,ls),
(462,512,o),
(490,540,o),
(490,592,cs),
(490,1172,l),
(658,1172,ls),
(710,1172,o),
(738,1200,o),
(738,1236,cs),
(738,1252,ls),
(738,1288,o),
(710,1316,o),
(658,1316,cs),
(490,1316,l),
(490,1456,ls),
(490,1508,o),
(462,1536,o),
(410,1536,cs),
(394,1536,ls),
(342,1536,o),
(314,1508,o),
(314,1456,cs),
(314,1316,l),
(146,1316,ls),
(94,1316,o),
(66,1288,o),
(66,1252,cs),
(66,1236,ls),
(66,1200,o),
(94,1172,o),
(146,1172,cs),
(314,1172,l),
(314,592,ls),
(314,540,o),
(342,512,o),
(394,512,cs)
);
}
);
width = 804;
}
);
unicode = 8224;
},
{
glyphname = daggerdbl;
lastChange = "2024-12-21 03:33:17 +0000";
layers = (
{
layerId = m01;
shapes = (
{
closed = 1;
nodes = (
(410,512,ls),
(462,512,o),
(490,540,o),
(490,592,cs),
(490,880,l),
(658,880,ls),
(710,880,o),
(738,908,o),
(738,944,cs),
(738,960,ls),
(738,996,o),
(710,1024,o),
(658,1024,cs),
(490,1024,l),
(490,1172,l),
(658,1172,ls),
(710,1172,o),
(738,1200,o),
(738,1236,cs),
(738,1252,ls),
(738,1288,o),
(710,1316,o),
(658,1316,cs),
(490,1316,l),
(490,1456,ls),
(490,1508,o),
(462,1536,o),
(410,1536,cs),
(394,1536,ls),
(342,1536,o),
(314,1508,o),
(314,1456,cs),
(314,1316,l),
(146,1316,ls),
(94,1316,o),
(66,1288,o),
(66,1252,cs),
(66,1236,ls),
(66,1200,o),
(94,1172,o),
(146,1172,cs),
(314,1172,l),
(314,1024,l),
(146,1024,ls),
(94,1024,o),
(66,996,o),
(66,960,cs),
(66,944,ls),
(66,908,o),
(94,880,o),
(146,880,cs),
(314,880,l),
(314,592,ls),
(314,540,o),
(342,512,o),
(394,512,cs)
);
}
);
width = 804;
}
);
unicode = 8225;
},
{
glyphname = cent;
lastChange = "2024-12-22 05:33:38 +0000";
layers = (
{
layerId = m01;
shapes = (
{
ref = c;
},
{
closed = 1;
nodes = (
(644,-176,ls),
(644,-228,o),
(672,-256,o),
(724,-256,cs),
(740,-256,ls),
(792,-256,o),
(820,-228,o),
(820,-176,cs),
(820,1200,ls),
(820,1252,o),
(792,1280,o),
(740,1280,cs),
(724,1280,ls),
(672,1280,o),
(644,1252,o),
(644,1200,cs)
);
}
);
width = 1708;
}
);
unicode = 162;
},
{
glyphname = currency;
lastChange = "2024-12-17 05:02:00 +0000";
layers = (
{
anchors = (
{
name = bottom;
pos = (744,276);
},
{
name = center;
pos = (744,768);
},
{
name = ogonek;
pos = (1272,282);
},
{
name = top;
pos = (744,1259);
},
{
name = topleft;
pos = (96,1259);
},
{
name = topright;
pos = (1391,1259);
}
);
layerId = m01;
shapes = (
{
closed = 1;
nodes = (
(156,79,o),
(195,79,o),
(232,115,cs),
(420,303,l),
(493,271,o),
(578,256,o),
(670,256,cs),
(823,256,ls),
(914,256,o),
(999,271,o),
(1072,303,c),
(1260,115,ls),
(1288,88,o),
(1336,79,o),
(1373,115,cs),
(1399,141,ls),
(1435,178,o),
(1426,226,o),
(1399,254,cs),
(1228,425,l),
(1287,503,o),
(1322,611,o),
(1322,752,cs),
(1322,783,ls),
(1322,924,o),
(1287,1032,o),
(1228,1111,c),
(1399,1282,ls),
(1426,1310,o),
(1435,1358,o),
(1399,1395,cs),
(1373,1421,ls),
(1336,1457,o),
(1288,1448,o),
(1260,1421,cs),
(1072,1233,l),
(999,1265,o),
(914,1280,o),
(823,1280,cs),
(670,1280,ls),
(578,1280,o),
(493,1265,o),
(421,1232,c),
(232,1421,ls),
(195,1457,o),
(156,1457,o),
(119,1421,cs),
(93,1395,ls),
(57,1358,o),
(57,1319,o),
(93,1282,cs),
(265,1110,l),
(205,1032,o),
(170,924,o),
(170,783,cs),
(170,752,ls),
(170,611,o),
(205,503,o),
(264,425,c),
(93,254,ls),
(57,217,o),
(57,178,o),
(93,141,cs),
(119,115,ls)
);
},
{
closed = 1;
nodes = (
(619,432,o),
(560,445,o),
(510,471,cs),
(468,494,o),
(433,526,o),
(408,569,cs),
(379,617,o),
(362,679,o),
(362,756,cs),
(362,780,ls),
(362,857,o),
(379,919,o),
(408,967,cs),
(433,1010,o),
(468,1042,o),
(510,1065,cs),
(560,1091,o),
(619,1104,o),
(683,1104,cs),
(810,1104,ls),
(990,1104,o),
(1130,1004,o),
(1130,780,cs),
(1130,756,ls),
(1130,532,o),
(990,432,o),
(810,432,cs),
(683,432,ls)
);
}
);
width = 1489;
}
);
unicode = 164;
},
{
glyphname = euro;
lastChange = "2024-12-17 04:14:28 +0000";
layers = (
{
layerId = m01;
shapes = (
{
closed = 1;
nodes = (
(156,744,ls),
(156,190,o),
(496,-32,o),
(840,-32,cs),
(1168,-32,ls),
(1490,-32,o),
(1599,28,o),
(1741,165,cs),
(1778,202,o),
(1773,243,o),
(1733,277,cs),
(1715,292,ls),
(1676,325,o),
(1640,320,o),
(1603,283,cs),
(1500,184,o),
(1437,144,o),
(1147,144,cs),
(861,144,ls),
(568,144,o),
(348,299,o),
(348,749,cs),
(348,788,ls),
(348,1238,o),
(568,1392,o),
(861,1392,cs),
(1147,1392,ls),
(1437,1392,o),
(1500,1352,o),
(1604,1253,cs),
(1641,1216,o),
(1675,1210,o),
(1715,1244,cs),
(1733,1259,ls),
(1773,1293,o),
(1778,1334,o),
(1741,1371,cs),
(1599,1508,o),
(1490,1568,o),
(1168,1568,cs),
(840,1568,ls),
(496,1568,o),
(156,1346,o),
(156,792,cs)
);
},
{
closed = 1;
nodes = (
(1307,512,ls),
(1352,512,o),
(1382,531,o),
(1400,574,cs),
(1411,600,ls),
(1433,652,o),
(1406,688,o),
(1346,688,cs),
(81,688,ls),
(36,688,o),
(6,668,o),
(-11,626,cs),
(-22,600,ls),
(-44,548,o),
(-18,512,o),
(42,512,cs)
);
},
{
closed = 1;
nodes = (
(1446,848,ls),
(1491,848,o),
(1521,867,o),
(1539,910,cs),
(1550,936,ls),
(1572,988,o),
(1545,1024,o),
(1485,1024,cs),
(96,1024,ls),
(51,1024,o),
(21,1004,o),
(4,962,cs),
(-7,936,ls),
(-29,884,o),
(-3,848,o),
(57,848,cs)
);
}
);
width = 1802;
}
);
unicode = 8364;
},
{
glyphname = sterling;
lastChange = "2024-12-17 05:15:34 +0000";
layers = (
{
layerId = m01;
shapes = (
{
closed = 1;
nodes = (
(1746,0,ls),
(1798,0,o),
(1826,28,o),
(1826,80,cs),
(1826,96,ls),
(1826,148,o),
(1798,176,o),
(1746,176,cs),
(546,176,l),
(546,592,l),
(1202,592,ls),
(1254,592,o),
(1282,620,o),
(1282,672,cs),
(1282,688,ls),
(1282,740,o),
(1254,768,o),
(1202,768,cs),
(546,768,l),
(548,1302,o),
(681,1360,o),
(1035,1360,cs),
(1145,1360,ls),
(1474,1360,o),
(1612,1310,o),
(1632,1009,cs),
(1635,956,o),
(1662,928,o),
(1713,928,cs),
(1745,928,ls),
(1797,928,o),
(1827,957,o),
(1823,1011,cs),
(1795,1425,o),
(1549,1536,o),
(1166,1536,cs),
(1014,1536,ls),
(608,1536,o),
(356,1411,o),
(354,768,c),
(146,768,ls),
(94,768,o),
(66,740,o),
(66,688,cs),
(66,672,ls),
(66,620,o),
(94,592,o),
(146,592,cs),
(354,592,l),
(354,523,ls),
(354,237,o),
(302,176,o),
(242,176,cs),
(190,176,o),
(162,148,o),
(162,96,cs),
(162,80,ls),
(162,28,o),
(190,0,o),
(242,0,cs)
);
}
);
width = 1958;
}
);
unicode = 163;
},
{
glyphname = won;
lastChange = "2024-12-16 05:47:33 +0000";
layers = (
{
layerId = m01;
shapes = (
{
ref = W;
},
{
closed = 1;
nodes = (
(66,908,ls),
(66,869,o),
(87,848,o),
(126,848,cs),
(2926,848,ls),
(2975,848,o),
(2996,869,o),
(2996,908,cs),
(2996,964,ls),
(2996,1003,o),
(2975,1024,o),
(2926,1024,cs),
(126,1024,ls),
(87,1024,o),
(66,1003,o),
(66,964,cs)
);
},
{
closed = 1;
nodes = (
(66,572,ls),
(66,533,o),
(87,512,o),
(126,512,cs),
(2926,512,ls),
(2975,512,o),
(2996,533,o),
(2996,572,cs),
(2996,628,ls),
(2996,667,o),
(2975,688,o),
(2926,688,cs),
(126,688,ls),
(87,688,o),
(66,667,o),
(66,628,cs)
);
}
);
width = 3062;
}
);
unicode = 8361;
},
{
glyphname = plus;
lastChange = "2024-12-17 04:50:10 +0000";
layers = (
{
layerId = m01;
shapes = (
{
closed = 1;
nodes = (
(684,0,ls),
(736,0,o),
(754,18,o),
(754,80,cs),
(754,424,l),
(1190,424,ls),
(1229,424,o),
(1250,445,o),
(1250,484,cs),
(1250,540,ls),
(1250,579,o),
(1229,600,o),
(1190,600,cs),
(754,600,l),
(754,954,ls),
(754,1006,o),
(736,1024,o),
(684,1024,cs),
(632,1024,ls),
(580,1024,o),
(562,1006,o),
(562,954,cs),
(562,600,l),
(126,600,ls),
(87,600,o),
(66,579,o),
(66,540,cs),
(66,484,ls),
(66,445,o),
(87,424,o),
(126,424,cs),
(562,424,l),
(562,80,ls),
(562,18,o),
(580,0,o),
(632,0,cs)
);
}
);
width = 1316;
}
);
unicode = 43;
},
{
glyphname = multiply;
lastChange = "2024-12-17 04:48:35 +0000";
layers = (
{
layerId = m01;
shapes = (
{
closed = 1;
nodes = (
(74,911,ls),
(46,883,o),
(46,854,o),
(74,826,cs),
(388,512,l),
(74,198,ls),
(46,170,o),
(46,141,o),
(74,113,cs),
(113,74,ls),
(141,46,o),
(170,46,o),
(198,74,cs),
(512,388,l),
(826,74,ls),
(854,46,o),
(883,46,o),
(911,74,cs),
(950,113,ls),
(978,141,o),
(978,170,o),
(950,198,cs),
(636,512,l),
(950,826,ls),
(978,854,o),
(978,883,o),
(950,911,cs),
(911,950,ls),
(883,978,o),
(854,978,o),
(826,950,cs),
(512,636,l),
(198,950,ls),
(170,978,o),
(141,978,o),
(113,950,cs)
);
}
);
width = 1061;
}
);
unicode = 215;
},
{
glyphname = less;
lastChange = "2024-12-16 05:43:25 +0000";
layers = (
{
anchors = (
{
name = bottom;
pos = (82,-1052);
},
{
name = top;
pos = (1618,-1052);
}
);
layerId = m01;
shapes = (
{
closed = 1;
nodes = (
(1211,-265,o),
(1250,-240,o),
(1250,-177,cs),
(1250,-130,ls),
(1250,-86,o),
(1235,-57,o),
(1195,-34,cs),
(258,512,l),
(1195,1059,ls),
(1235,1082,o),
(1250,1111,o),
(1250,1155,cs),
(1250,1201,ls),
(1250,1264,o),
(1211,1290,o),
(1154,1257,cs),
(121,655,ls),
(80,631,o),
(66,603,o),
(66,559,cs),
(66,465,ls),
(66,421,o),
(82,392,o),
(121,369,cs),
(1154,-232,ls)
);
}
);
width = 1316;
}
);
unicode = 60;
},
{
glyphname = asciitilde;
lastChange = "2024-12-16 05:30:22 +0000";
layers = (
{
layerId = m01;
shapes = (
{
closed = 1;
nodes = (
(201,383,ls),
(238,383,o),
(253,403,o),
(263,442,cs),
(271,471,o),
(290,480,o),
(336,480,cs),
(389,480,o),
(443,451,o),
(487,432,cs),
(563,400,o),
(636,384,o),
(706,384,cs),
(767,384,o),
(822,402,o),
(870,438,cs),
(916,472,o),
(944,520,o),
(956,578,cs),
(964,618,o),
(939,641,o),
(899,641,cs),
(827,641,ls),
(790,641,o),
(775,621,o),
(765,583,cs),
(756,552,o),
(736,544,o),
(692,544,cs),
(639,544,o),
(585,573,o),
(541,592,cs),
(466,624,o),
(393,641,o),
(322,641,cs),
(196,641,o),
(97,572,o),
(72,446,cs),
(64,406,o),
(89,383,o),
(129,383,cs)
);
}
);
width = 1028;
}
);
unicode = 126;
},
{
glyphname = logicalnot;
lastChange = "2024-12-19 01:55:57 +0000";
layers = (
{
layerId = m01;
shapes = (
{
closed = 1;
nodes = (
(1030,256,ls),
(1069,256,o),
(1090,277,o),
(1090,316,cs),
(1090,708,ls),
(1090,747,o),
(1069,768,o),
(1030,768,cs),
(126,768,ls),
(87,768,o),
(66,747,o),
(66,708,cs),
(66,652,ls),
(66,613,o),
(87,592,o),
(126,592,cs),
(914,592,l),
(914,316,ls),
(914,277,o),
(935,256,o),
(974,256,cs)
);
}
);
width = 1156;
}
);
unicode = 172;
},
{
glyphname = asciicircum;
lastChange = "2024-12-16 05:35:23 +0000";
layers = (
{
layerId = m01;
shapes = (
{
closed = 1;
nodes = (
(476,557,l),
(510,557,l),
(761,320,ls),
(798,285,o),
(845,275,o),
(880,310,cs),
(900,330,ls),
(935,365,o),
(923,412,o),
(888,447,cs),
(642,693,ls),
(603,732,o),
(566,749,o),
(511,749,cs),
(474,749,ls),
(420,749,o),
(382,731,o),
(344,693,cs),
(98,447,ls),
(63,412,o),
(52,365,o),
(87,330,cs),
(107,310,ls),
(142,275,o),
(187,285,o),
(224,320,cs)
);
}
);
width = 987;
}
);
unicode = 94;
},
{
glyphname = infinity;
lastChange = "2024-12-22 05:37:45 +0000";
layers = (
{
layerId = m01;
shapes = (
{
closed = 1;
nodes = (
(699,0,ls),
(836,0,o),
(958,25,o),
(1049,116,c),
(1315,394,l),
(1581,116,l),
(1672,25,o),
(1794,0,o),
(1931,0,cs),
(2046,0,ls),
(2321,0,o),
(2534,139,o),
(2534,497,cs),
(2534,527,ls),
(2534,885,o),
(2321,1024,o),
(2046,1024,cs),
(1931,1024,ls),
(1794,1024,o),
(1672,1000,o),
(1581,908,c),
(1315,630,l),
(1049,908,l),
(958,1000,o),
(836,1024,o),
(699,1024,cs),
(584,1024,ls),
(309,1024,o),
(96,885,o),
(96,527,cs),
(96,497,ls),
(96,139,o),
(309,0,o),
(584,0,cs)
);
},
{
closed = 1;
nodes = (
(272,525,ls),
(272,784,o),
(410,880,o),
(597,880,cs),
(685,880,ls),
(762,880,o),
(857,862,o),
(930,789,c),
(1195,512,l),
(930,235,l),
(855,160,o),
(780,144,o),
(685,144,cs),
(597,144,ls),
(410,144,o),
(272,241,o),
(272,500,cs)
);
},
{
closed = 1;
nodes = (
(1700,789,l),
(1773,862,o),
(1868,880,o),
(1945,880,cs),
(2033,880,ls),
(2220,880,o),
(2358,784,o),
(2358,525,cs),
(2358,500,ls),
(2358,241,o),
(2220,144,o),
(2033,144,cs),
(1945,144,ls),
(1850,144,o),
(1775,160,o),
(1700,235,c),
(1435,512,l)
);
}
);
width = 2630;
}
);
unicode = 8734;
},
{
glyphname = integral;
lastChange = "2024-12-21 04:07:55 +0000";
layers = (
{
layerId = m01;
shapes = (
{
closed = 1;
nodes = (
(451,-512,o),
(588,-371,o),
(628,40,cs),
(720,983,ls),
(751,1299,o),
(797,1355,o),
(1007,1360,cs),
(1061,1361,o),
(1090,1387,o),
(1090,1432,cs),
(1090,1466,ls),
(1090,1511,o),
(1061,1536,o),
(1007,1536,cs),
(705,1536,o),
(568,1395,o),
(528,984,cs),
(436,41,ls),
(405,-275,o),
(359,-331,o),
(149,-336,cs),
(95,-337,o),
(66,-363,o),
(66,-408,cs),
(66,-442,ls),
(66,-487,o),
(95,-512,o),
(149,-512,cs)
);
}
);
width = 1156;
}
);
unicode = 8747;
},
{
glyphname = radical;
lastChange = "2024-12-19 02:06:59 +0000";
layers = (
{
layerId = m01;
shapes = (
{
closed = 1;
nodes = (
(600,0,ls),
(645,0,o),
(676,20,o),
(693,62,cs),
(1231,1360,l),
(1546,1360,ls),
(1598,1360,o),
(1626,1388,o),
(1626,1440,cs),
(1626,1456,ls),
(1626,1508,o),
(1598,1536,o),
(1546,1536,cs),
(1181,1536,ls),
(1136,1536,o),
(1105,1516,o),
(1088,1474,cs),
(579,246,l),
(283,962,ls),
(266,1004,o),
(235,1024,o),
(190,1024,cs),
(162,1024,ls),
(105,1024,o),
(82,986,o),
(105,931,cs),
(465,62,ls),
(482,20,o),
(513,0,o),
(558,0,cs)
);
}
);
width = 1692;
}
);
unicode = 8730;
},
{
glyphname = partialdiff;
lastChange = "2024-12-15 15:59:52 +0000";
layers = (
{
layerId = m01;
shapes = (
{
closed = 1;
nodes = (
(808,-24,ls),
(1160,-24,o),
(1328,60,o),
(1328,496,cs),
(1328,1022,ls),
(1327,1485,o),
(1158,1568,o),
(808,1568,cs),
(646,1568,ls),
(324,1568,o),
(156,1501,o),
(124,1291,cs),
(116,1238,o),
(148,1208,o),
(201,1208,cs),
(218,1208,ls),
(268,1208,o),
(290,1234,o),
(301,1283,cs),
(327,1397,o),
(426,1424,o),
(660,1424,cs),
(794,1424,ls),
(1064,1424,o),
(1152,1387,o),
(1152,1015,cs),
(1152,863,l),
(1064,994,o),
(924,1048,o),
(794,1048,cs),
(592,1048,ls),
(240,1048,o),
(72,964,o),
(72,528,cs),
(72,496,ls),
(72,60,o),
(240,-24,o),
(592,-24,cs)
);
},
{
closed = 1;
nodes = (
(336,120,o),
(248,159,o),
(248,499,cs),
(248,525,ls),
(248,865,o),
(336,904,o),
(606,904,cs),
(794,904,ls),
(1054,904,o),
(1152,771,o),
(1152,525,cs),
(1152,499,ls),
(1152,159,o),
(1064,120,o),
(794,120,cs),
(606,120,ls)
);
}
);
width = 1416;
}
);
unicode = 8706;
},
{
glyphname = lozenge;
lastChange = "2024-12-21 04:15:46 +0000";
layers = (
{
anchors = (
{
name = bottom;
pos = (740,0);
},
{
name = top;
pos = (740,1024);
}
);
layerId = m01;
shapes = (
{
closed = 1;
nodes = (
(832,0,ls),
(861,0,o),
(880,12,o),
(895,37,cs),
(1327,761,ls),
(1350,800,o),
(1350,832,o),
(1327,871,cs),
(895,1595,ls),
(880,1620,o),
(861,1632,o),
(832,1632,cs),
(648,1632,ls),
(619,1632,o),
(600,1620,o),
(585,1595,cs),
(153,871,ls),
(130,832,o),
(130,800,o),
(153,761,cs),
(585,37,ls),
(600,12,o),
(619,0,o),
(648,0,cs)
);
},
{
closed = 1;
nodes = (
(740,1488,l),
(1150,816,l),
(740,144,l),
(330,816,l)
);
}
);
width = 1480;
}
);
unicode = 9674;
},
{
glyphname = dotaccentcomb;
lastChange = "2024-12-22 04:55:45 +0000";
layers = (
{
anchors = (
{
name = _top;
pos = (224,1024);
},
{
name = top;
pos = (224,1536);
}
);
layerId = m01;
shapes = (
{
closed = 1;
nodes = (
(128,1440,ls),
(128,1388,o),
(156,1360,o),
(208,1360,cs),
(240,1360,ls),
(292,1360,o),
(320,1388,o),
(320,1440,cs),
(320,1456,ls),
(320,1508,o),
(292,1536,o),
(240,1536,cs),
(208,1536,ls),
(156,1536,o),
(128,1508,o),
(128,1456,cs)
);
}
);
width = 448;
}
);
unicode = 775;
},
{
glyphname = caroncomb.alt;
lastChange = "2024-12-07 05:26:51 +0000";
layers = (
{
anchors = (
{
name = _topright;
pos = (112,1632);
}
);
layerId = m01;
shapes = (
{
closed = 1;
nodes = (
(153,1255,ls),
(172,1236,o),
(201,1230,o),
(233,1258,cs),
(408,1410,ls),
(440,1438,o),
(433,1473,o),
(404,1502,cs),
(395,1511,ls),
(366,1540,o),
(331,1547,o),
(303,1515,cs),
(151,1340,ls),
(123,1308,o),
(129,1279,o),
(148,1260,cs)
);
}
);
width = 600;
}
);
},
{
glyphname = hookabovecomb;
lastChange = "2024-12-21 05:33:14 +0000";
layers = (
{
anchors = (
{
name = _top;
pos = (209,1024);
},
{
name = top;
pos = (209,1520);
}
);
layerId = m01;
shapes = (
{
closed = 1;
nodes = (
(213,1048,ls),
(252,1048,o),
(273,1069,o),
(273,1108,cs),
(273,1136,l),
(365,1144,o),
(444,1219,o),
(444,1328,cs),
(444,1437,o),
(361,1520,o),
(251,1520,cs),
(192,1520,ls),
(153,1520,o),
(132,1503,o),
(132,1462,cs),
(132,1458,ls),
(132,1417,o),
(153,1400,o),
(192,1400,cs),
(248,1400,ls),
(284,1400,o),
(312,1376,o),
(312,1328,cs),
(312,1280,o),
(279,1256,o),
(243,1256,cs),
(215,1256,ls),
(159,1256,o),
(145,1225,o),
(145,1167,cs),
(145,1108,ls),
(145,1069,o),
(166,1048,o),
(205,1048,cs)
);
}
);
width = 444;
}
);
unicode = 777;
},
{
glyphname = horncomb;
lastChange = "2024-12-21 05:35:13 +0000";
layers = (
{
anchors = (
{
name = _topright;
pos = (-20,1024);
},
{
name = topright;
pos = (344,1213);
}
);
layerId = m01;
shapes = (
{
closed = 1;
nodes = (
(58,904,ls),
(191,904,o),
(324,946,o),
(324,1151,cs),
(324,1153,ls),
(324,1192,o),
(302,1213,o),
(259,1213,cs),
(257,1213,ls),
(214,1213,o),
(192,1193,o),
(192,1154,cs),
(192,1152,ls),
(192,1043,o),
(116,1024,o),
(51,1024,cs),
(49,1024,ls),
(17,1024,o),
(0,1004,o),
(0,965,cs),
(0,963,ls),
(0,924,o),
(19,904,o),
(56,904,cs)
);
}
);
width = 324;
}
);
unicode = 795;
},
{
glyphname = commaaccentcomb;
lastChange = "2024-12-07 06:02:54 +0000";
layers = (
{
anchors = (
{
name = _bottom;
pos = (264,0);
},
{
name = bottom;
pos = (264,-544);
}
);
layerId = m01;
shapes = (
{
closed = 1;
nodes = (
(310,-522,o),
(380,-442,o),
(380,-288,cs),
(380,-120,ls),
(380,-81,o),
(355,-56,o),
(316,-56,cs),
(212,-56,ls),
(173,-56,o),
(148,-81,o),
(148,-120,cs),
(148,-224,ls),
(148,-263,o),
(173,-288,o),
(251,-288,c),
(251,-353,o),
(235,-390,o),
(200,-390,cs),
(161,-390,o),
(132,-411,o),
(132,-450,cs),
(132,-462,ls),
(132,-501,o),
(161,-522,o),
(223,-522,cs)
);
}
);
width = 512;
}
);
unicode = 806;
},
{
glyphname = slashshortcomb;
lastChange = "2024-12-14 05:52:12 +0000";
layers = (
{
anchors = (
{
name = _center;
pos = (384,512);
}
);
layerId = m01;
shapes = (
{
closed = 1;
nodes = (
(0,357,ls),
(0,297,o),
(38,272,o),
(93,295,cs),
(706,550,ls),
(748,568,o),
(768,598,o),
(768,643,cs),
(768,672,ls),
(768,729,o),
(730,752,o),
(675,729,cs),
(62,474,ls),
(20,456,o),
(0,426,o),
(0,381,cs)
);
}
);
width = 768;
}
);
unicode = 823;
},
{
glyphname = dieresis;
lastChange = "2024-12-06 17:42:08 +0000";
layers = (
{
layerId = m01;
shapes = (
{
closed = 1;
nodes = (
(632,1360,ls),
(684,1360,o),
(712,1388,o),
(712,1440,cs),
(712,1456,ls),
(712,1508,o),
(684,1536,o),
(632,1536,cs),
(600,1536,ls),
(548,1536,o),
(520,1508,o),
(520,1456,cs),
(520,1440,ls),
(520,1388,o),
(548,1360,o),
(600,1360,cs)
);
},
{
closed = 1;
nodes = (
(184,1360,ls),
(236,1360,o),
(264,1388,o),
(264,1440,cs),
(264,1456,ls),
(264,1508,o),
(236,1536,o),
(184,1536,cs),
(152,1536,ls),
(100,1536,o),
(72,1508,o),
(72,1456,cs),
(72,1440,ls),
(72,1388,o),
(100,1360,o),
(152,1360,cs)
);
}
);
width = 784;
}
);
unicode = 168;
},
{
glyphname = acute;
lastChange = "2024-12-03 21:22:59 +0000";
layers = (
{
layerId = m01;
shapes = (
{
closed = 1;
nodes = (
(95,1351,ls),
(58,1315,o),
(54,1280,o),
(82,1247,cs),
(82,1247,ls),
(110,1214,o),
(146,1212,o),
(187,1241,cs),
(370,1371,ls),
(414,1403,o),
(419,1443,o),
(384,1483,cs),
(368,1503,ls),
(334,1544,o),
(293,1547,o),
(255,1509,cs)
);
}
);
width = 455;
}
);
unicode = 180;
},
{
glyphname = hungarumlaut;
lastChange = "2024-12-06 18:02:06 +0000";
layers = (
{
layerId = m01;
shapes = (
{
closed = 1;
nodes = (
(153,1255,ls),
(172,1236,o),
(201,1230,o),
(233,1258,cs),
(408,1410,ls),
(440,1438,o),
(433,1473,o),
(404,1502,cs),
(395,1511,ls),
(366,1540,o),
(331,1547,o),
(303,1515,cs),
(151,1340,ls),
(123,1308,o),
(129,1279,o),
(148,1260,cs)
);
},
{
closed = 1;
nodes = (
(476,1255,ls),
(495,1236,o),
(524,1230,o),
(556,1258,cs),
(731,1410,ls),
(763,1438,o),
(756,1473,o),
(727,1502,cs),
(718,1511,ls),
(689,1540,o),
(654,1547,o),
(626,1515,cs),
(474,1340,ls),
(446,1308,o),
(452,1279,o),
(471,1260,cs)
);
}
);
width = 884;
}
);
unicode = 733;
},
{
glyphname = circumflex;
lastChange = "2024-12-05 17:30:27 +0000";
layers = (
{
layerId = m01;
shapes = (
{
closed = 1;
nodes = (
(372,1392,l),
(398,1392,l),
(579,1222,ls),
(617,1187,o),
(653,1184,o),
(683,1214,cs),
(683,1214,ls),
(713,1244,o),
(711,1280,o),
(674,1317,cs),
(497,1494,ls),
(468,1523,o),
(440,1536,o),
(399,1536,cs),
(371,1536,ls),
(330,1536,o),
(302,1523,o),
(273,1494,cs),
(96,1317,ls),
(59,1280,o),
(58,1244,o),
(88,1214,cs),
(88,1214,ls),
(119,1183,o),
(153,1187,o),
(191,1222,cs)
);
}
);
width = 770;
}
);
unicode = 710;
},
{
glyphname = breve;
lastChange = "2024-12-13 22:15:46 +0000";
layers = (
{
layerId = m01;
shapes = (
{
closed = 1;
nodes = (
(420,1184,ls),
(561,1184,o),
(680,1237,o),
(705,1451,cs),
(711,1506,o),
(683,1536,o),
(637,1536,cs),
(637,1536,ls),
(590,1536,o),
(568,1508,o),
(559,1455,cs),
(541,1338,o),
(480,1316,o),
(410,1316,cs),
(368,1316,ls),
(298,1316,o),
(237,1338,o),
(219,1455,cs),
(210,1508,o),
(188,1536,o),
(141,1536,cs),
(141,1536,ls),
(95,1536,o),
(67,1506,o),
(73,1451,cs),
(98,1237,o),
(217,1184,o),
(358,1184,cs)
);
}
);
width = 778;
}
);
unicode = 728;
},
{
glyphname = ring;
lastChange = "2024-12-07 05:53:53 +0000";
layers = (
{
layerId = m01;
shapes = (
{
closed = 1;
nodes = (
(72,1400,ls),
(72,1195,o),
(206,1152,o),
(339,1152,cs),
(381,1152,ls),
(514,1152,o),
(648,1195,o),
(648,1400,cs),
(648,1416,ls),
(648,1621,o),
(514,1664,o),
(381,1664,cs),
(339,1664,ls),
(206,1664,o),
(72,1621,o),
(72,1416,cs)
);
},
{
closed = 1;
nodes = (
(204,1524,o),
(281,1544,o),
(346,1544,cs),
(374,1544,ls),
(439,1544,o),
(516,1524,o),
(516,1415,cs),
(516,1401,ls),
(516,1292,o),
(439,1272,o),
(374,1272,cs),
(346,1272,ls),
(281,1272,o),
(204,1292,o),
(204,1401,cs),
(204,1415,ls)
);
}
);
width = 720;
}
);
unicode = 730;
},
{
glyphname = tilde;
lastChange = "2024-12-16 05:31:45 +0000";
layers = (
{
layerId = m01;
shapes = (
{
closed = 1;
nodes = (
);
},
{
closed = 1;
nodes = (
(164,1342,ls),
(192,1342,o),
(203,1357,o),
(211,1386,cs),
(217,1408,o),
(231,1415,o),
(265,1415,cs),
(305,1415,o),
(346,1393,o),
(379,1379,cs),
(436,1355,o),
(491,1343,o),
(543,1343,cs),
(589,1343,o),
(630,1356,o),
(666,1383,cs),
(701,1409,o),
(722,1445,o),
(731,1489,cs),
(737,1519,o),
(718,1536,o),
(688,1536,cs),
(634,1536,ls),
(606,1536,o),
(595,1521,o),
(587,1492,cs),
(581,1469,o),
(566,1463,o),
(533,1463,cs),
(493,1463,o),
(452,1485,o),
(419,1499,cs),
(363,1523,o),
(308,1536,o),
(255,1536,cs),
(160,1536,o),
(86,1484,o),
(67,1389,cs),
(61,1359,o),
(80,1342,o),
(110,1342,cs)
);
}
);
width = 798;
}
);
unicode = 732;
},
{
glyphname = macron;
lastChange = "2024-12-06 17:42:04 +0000";
layers = (
{
layerId = m01;
shapes = (
{
closed = 1;
nodes = (
(632,1360,ls),
(684,1360,o),
(712,1388,o),
(712,1440,cs),
(712,1456,ls),
(712,1508,o),
(684,1536,o),
(632,1536,cs),
(152,1536,ls),
(100,1536,o),
(72,1508,o),
(72,1456,cs),
(72,1440,ls),
(72,1388,o),
(100,1360,o),
(152,1360,cs)
);
}
);
width = 784;
}
);
unicode = 175;
},
{
glyphname = cedilla;
lastChange = "2024-12-13 22:10:38 +0000";
layers = (
{
layerId = m01;
shapes = (
{
closed = 1;
nodes = (
(109,-143,ls),
(95,-199,o),
(123,-232,o),
(179,-232,cs),
(207,-232,ls),
(243,-232,o),
(276,-256,o),
(276,-304,cs),
(276,-352,o),
(248,-376,o),
(212,-376,cs),
(164,-376,ls),
(128,-376,o),
(107,-393,o),
(98,-428,cs),
(96,-436,ls),
(87,-474,o),
(108,-496,o),
(150,-496,cs),
(215,-496,ls),
(325,-496,o),
(408,-413,o),
(408,-304,cs),
(408,-195,o),
(329,-120,o),
(237,-112,c),
(269,16,l),
(149,16,l)
);
}
);
width = 444;
}
);
unicode = 184;
},
{
glyphname = ogonek;
lastChange = "2024-12-14 04:27:59 +0000";
layers = (
{
layerId = m01;
shapes = (
{
closed = 1;
nodes = (
(272,-384,o),
(302,-390,o),
(332,-382,cs),
(370,-371,o),
(396,-334,o),
(380,-292,cs),
(380,-292,ls),
(359,-260,o),
(332,-248,o),
(285,-239,cs),
(283,-238,o),
(280,-237,o),
(279,-237,cs),
(223,-222,o),
(190,-165,o),
(210,-92,cs),
(216,-68,o),
(227,-48,o),
(240,-33,cs),
(256,-16,o),
(263,-1,o),
(254,21,cs),
(254,22,ls),
(245,44,o),
(227,54,o),
(203,43,cs),
(145,16,o),
(101,-35,o),
(83,-102,cs),
(51,-221,o),
(121,-344,o),
(241,-376,cs)
);
}
);
width = 458;
}
);
unicode = 731;
},
{
glyphname = ringhalfright;
lastChange = "2024-12-21 03:52:14 +0000";
layers = (
{
layerId = m01;
shapes = (
{
closed = 1;
nodes = (
(106,1152,ls),
(239,1152,o),
(372,1195,o),
(372,1400,cs),
(372,1416,ls),
(372,1621,o),
(239,1664,o),
(106,1664,cs),
(104,1664,ls),
(67,1664,o),
(48,1644,o),
(48,1605,cs),
(48,1603,ls),
(48,1564,o),
(65,1544,o),
(97,1544,cs),
(99,1544,ls),
(164,1544,o),
(240,1524,o),
(240,1415,cs),
(240,1401,ls),
(240,1292,o),
(164,1272,o),
(99,1272,cs),
(97,1272,ls),
(65,1272,o),
(48,1252,o),
(48,1213,cs),
(48,1211,ls),
(48,1172,o),
(67,1152,o),
(104,1152,cs)
);
}
);
width = 438;
}
);
unicode = 702;
},
{
glyphname = verticallinemod;
lastChange = "2024-12-21 04:54:20 +0000";
layers = (
{
layerId = m01;
shapes = (
{
closed = 1;
nodes = (
(236,1024,ls),
(278,1024,o),
(304,1040,o),
(304,1082,cs),
(304,1474,ls),
(304,1516,o),
(278,1536,o),
(236,1536,cs),
(200,1536,ls),
(158,1536,o),
(132,1516,o),
(132,1474,cs),
(132,1082,ls),
(132,1040,o),
(158,1024,o),
(200,1024,cs)
);
}
);
width = 436;
}
);
unicode = 712;
},
{
export = 0;
glyphname = "_hstem-CH";
lastChange = "2024-11-30 05:48:32 +0000";
layers = (
{
layerId = m01;
shapes = (
{
closed = 1;
nodes = (
(176,80,ls),
(176,28,o),
(204,0,o),
(256,0,cs),
(288,0,ls),
(340,0,o),
(368,28,o),
(368,80,cs),
(368,1456,ls),
(368,1508,o),
(340,1536,o),
(288,1536,cs),
(256,1536,ls),
(204,1536,o),
(176,1508,o),
(176,1456,cs)
);
}
);
width = 368;
}
);
},
{
export = 0;
glyphname = "_hstem-s-CH";
lastChange = "2024-12-22 04:54:09 +0000";
layers = (
{
layerId = m01;
shapes = (
{
closed = 1;
nodes = (
(128,80,ls),
(128,28,o),
(156,0,o),
(208,0,cs),
(224,0,ls),
(276,0,o),
(304,28,o),
(304,80,cs),
(304,1456,ls),
(304,1508,o),
(276,1536,o),
(224,1536,cs),
(208,1536,ls),
(156,1536,o),
(128,1508,o),
(128,1456,cs)
);
}
);
width = 304;
}
);
},
{
export = 0;
glyphname = "_hstem-s-fullheight";
lastChange = "2024-12-14 23:41:23 +0000";
layers = (
{
layerId = m01;
shapes = (
{
closed = 1;
nodes = (
(132,-432,ls),
(132,-484,o),
(160,-512,o),
(212,-512,cs),
(228,-512,ls),
(280,-512,o),
(308,-484,o),
(308,-432,cs),
(308,1456,ls),
(308,1508,o),
(280,1536,o),
(228,1536,cs),
(212,1536,ls),
(160,1536,o),
(132,1508,o),
(132,1456,cs)
);
}
);
width = 308;
}
);
},
{
export = 0;
glyphname = "_hstem-s-xH";
lastChange = "2024-11-29 23:01:25 +0000";
layers = (
{
layerId = m01;
shapes = (
{
closed = 1;
nodes = (
(132,80,ls),
(132,28,o),
(160,0,o),
(212,0,cs),
(228,0,ls),
(280,0,o),
(308,28,o),
(308,80,cs),
(308,944,ls),
(308,996,o),
(280,1024,o),
(228,1024,cs),
(212,1024,ls),
(160,1024,o),
(132,996,o),
(132,944,cs)
);
}
);
width = 308;
}
);
},
{
export = 0;
glyphname = "_hstem-xtall";
lastChange = "2024-12-07 06:22:56 +0000";
layers = (
{
anchors = (
{
name = _bottom;
pos = (424,-32);
}
);
layerId = m01;
shapes = (
{
closed = 1;
nodes = (
(144,-116,ls),
(144,-168,o),
(172,-196,o),
(224,-196,cs),
(256,-196,ls),
(308,-196,o),
(336,-168,o),
(336,-116,cs),
(336,1644,ls),
(336,1696,o),
(308,1724,o),
(256,1724,cs),
(224,1724,ls),
(172,1724,o),
(144,1696,o),
(144,1644,cs)
);
}
);
width = 480;
}
);
},
{
export = 0;
glyphname = "_stroke-narrow";
lastChange = "2024-11-30 01:00:44 +0000";
layers = (
{
layerId = m01;
shapes = (
{
closed = 1;
nodes = (
(0,944,ls),
(0,908,o),
(28,880,o),
(80,880,cs),
(816,880,ls),
(868,880,o),
(896,908,o),
(896,944,cs),
(896,960,ls),
(896,996,o),
(868,1024,o),
(816,1024,cs),
(80,1024,ls),
(28,1024,o),
(0,996,o),
(0,960,cs)
);
}
);
width = 1432;
}
);
},
{
export = 0;
glyphname = "_bowl-P";
lastChange = "2024-11-30 04:52:38 +0000";
layers = (
{
layerId = m01;
shapes = (
{
closed = 1;
nodes = (
(-192,656,ls),
(-192,604,o),
(-164,576,o),
(-112,576,cs),
(1016,576,ls),
(1368,576,o),
(1536,660,o),
(1536,1040,cs),
(1536,1072,ls),
(1536,1452,o),
(1368,1536,o),
(1016,1536,cs),
(-112,1536,ls),
(-164,1536,o),
(-192,1508,o),
(-192,1456,cs)
);
},
{
closed = 1;
nodes = (
(1002,1360,ls),
(1256,1360,o),
(1344,1331,o),
(1344,1069,cs),
(1344,1043,ls),
(1344,791,o),
(1256,752,o),
(1002,752,cs),
(0,752,l),
(0,1360,l)
);
}
);
width = 1624;
}
);
},
{
export = 0;
glyphname = "_bowl-a";
lastChange = "2024-12-22 05:04:47 +0000";
layers = (
{
layerId = m01;
shapes = (
{
closed = 1;
nodes = (
(1186,516,o),
(1066,600,o),
(740,600,cs),
(592,600,ls),
(240,600,o),
(72,516,o),
(72,300,cs),
(72,268,ls),
(72,52,o),
(240,-32,o),
(592,-32,cs),
(740,-32,ls),
(1066,-32,o),
(1186,52,o),
(1186,268,cs),
(1186,300,ls)
);
},
{
closed = 1;
nodes = (
(1098,271,ls),
(1098,151,o),
(1000,112,o),
(740,112,cs),
(606,112,ls),
(336,112,o),
(248,151,o),
(248,271,cs),
(248,297,ls),
(248,417,o),
(336,456,o),
(606,456,cs),
(740,456,ls),
(1000,456,o),
(1098,417,o),
(1098,297,cs)
);
}
);
width = 1344;
}
);
},
{
export = 0;
glyphname = "_bowl-b";
lastChange = "2024-12-22 04:53:39 +0000";
layers = (
{
layerId = m01;
shapes = (
{
closed = 1;
nodes = (
(-88,496,ls),
(-88,116,o),
(148,-24,o),
(358,-24,cs),
(560,-24,ls),
(912,-24,o),
(1080,60,o),
(1080,496,cs),
(1080,528,ls),
(1080,964,o),
(912,1048,o),
(560,1048,cs),
(358,1048,ls),
(148,1048,o),
(-88,908,o),
(-88,528,cs)
);
},
{
closed = 1;
nodes = (
(0,731,o),
(118,904,o),
(358,904,cs),
(546,904,ls),
(816,904,o),
(904,865,o),
(904,525,cs),
(904,499,ls),
(904,159,o),
(816,120,o),
(546,120,cs),
(358,120,ls),
(118,120,o),
(0,293,o),
(0,499,cs),
(0,525,ls)
);
}
);
width = 1176;
}
);
},
{
export = 0;
glyphname = "_bowl-n";
lastChange = "2024-11-30 15:36:09 +0000";
layers = (
{
layerId = m01;
shapes = (
{
closed = 1;
nodes = (
(0,608,l),
(0,771,o),
(98,904,o),
(358,904,cs),
(442,904,ls),
(712,904,o),
(800,865,o),
(800,525,cs),
(800,80,ls),
(800,28,o),
(828,0,o),
(880,0,cs),
(896,0,ls),
(948,0,o),
(976,28,o),
(976,80,cs),
(976,528,ls),
(976,964,o),
(808,1048,o),
(456,1048,cs),
(358,1048,ls),
(148,1048,o),
(-88,908,o),
(-88,608,c)
);
}
);
width = 1048;
}
);
},
{
export = 0;
glyphname = "_stem-a";
lastChange = "2024-12-22 05:05:09 +0000";
layers = (
{
layerId = m01;
shapes = (
{
closed = 1;
nodes = (
(167,688,ls),
(217,688,o),
(239,714,o),
(250,763,cs),
(276,877,o),
(375,904,o),
(601,904,cs),
(717,904,ls),
(1019,904,o),
(1075,867,o),
(1075,527,cs),
(1075,82,ls),
(1075,31,o),
(1104,2,o),
(1155,1,cs),
(1171,1,ls),
(1223,0,o),
(1251,28,o),
(1251,80,cs),
(1251,528,ls),
(1251,964,o),
(1115,1048,o),
(731,1048,cs),
(587,1048,ls),
(273,1048,o),
(105,981,o),
(73,771,cs),
(65,718,o),
(97,688,o),
(150,688,cs)
);
}
);
width = 1323;
}
);
},
{
export = 0;
glyphname = _stroke;
lastChange = "2024-11-30 00:55:40 +0000";
layers = (
{
layerId = m01;
shapes = (
{
closed = 1;
nodes = (
(72,520,ls),
(72,484,o),
(100,456,o),
(152,456,cs),
(1182,456,ls),
(1234,456,o),
(1262,484,o),
(1262,520,cs),
(1262,536,ls),
(1262,572,o),
(1234,600,o),
(1182,600,cs),
(152,600,ls),
(100,600,o),
(72,572,o),
(72,536,cs)
);
}
